<svg width="30" height="30" viewBox="0 0 30 30" fill="none" xmlns="http://www.w3.org/2000/svg">
<path d="M7.5 26.249C6.8125 26.249 6.22417 26.0161 5.735 25.5502C5.24583 25.0843 5.00083 24.5236 5 23.8681V11.9633C5 11.3085 5.245 10.7482 5.735 10.2824C6.225 9.81648 6.81333 9.58315 7.5 9.58236H8.75V7.2014C8.75 5.55458 9.35958 4.15101 10.5787 2.99069C11.7979 1.83037 13.2717 1.24982 15 1.24902C16.7292 1.24902 18.2033 1.82958 19.4225 2.99069C20.6417 4.1518 21.2508 5.55537 21.25 7.2014V9.58236H22.5C23.1875 9.58236 23.7762 9.81569 24.2662 10.2824C24.7562 10.749 25.0008 11.3093 25 11.9633V23.8681C25 24.5228 24.7554 25.0835 24.2662 25.5502C23.7771 26.0169 23.1883 26.2498 22.5 26.249H7.5ZM15 20.2966C15.6875 20.2966 16.2762 20.0637 16.7662 19.5978C17.2562 19.132 17.5008 18.5712 17.5 17.9157C17.5 17.2609 17.2554 16.7006 16.7662 16.2347C16.2771 15.7689 15.6883 15.5355 15 15.5347C14.3125 15.5347 13.7242 15.7681 13.235 16.2347C12.7458 16.7014 12.5008 17.2617 12.5 17.9157C12.5 18.5704 12.745 19.1312 13.235 19.5978C13.725 20.0645 14.3133 20.2974 15 20.2966ZM11.25 9.58236H18.75V7.2014C18.75 6.20934 18.3854 5.36609 17.6562 4.67164C16.9271 3.9772 16.0417 3.62998 15 3.62998C13.9583 3.62998 13.0729 3.9772 12.3437 4.67164C11.6146 5.36609 11.25 6.20934 11.25 7.2014V9.58236Z" fill="#DCA277"/>
</svg>
