<svg width="30" height="30" viewBox="0 0 30 30" fill="none" xmlns="http://www.w3.org/2000/svg">
<path d="M13.75 21.249H8.75C7.02083 21.249 5.54708 20.6394 4.32875 19.4203C3.11042 18.2011 2.50083 16.7274 2.5 14.999C2.5 13.2699 3.10958 11.7961 4.32875 10.5778C5.54792 9.35944 7.02167 8.74986 8.75 8.74902H13.75V11.249H8.75C7.70833 11.249 6.82292 11.6136 6.09375 12.3428C5.36458 13.0719 5 13.9574 5 14.999C5 16.0407 5.36458 16.9261 6.09375 17.6553C6.82292 18.3844 7.70833 18.749 8.75 18.749H13.75V21.249ZM10 16.249V13.749H20V16.249H10ZM16.25 21.249V18.749H21.25C22.2917 18.749 23.1771 18.3844 23.9062 17.6553C24.6354 16.9261 25 16.0407 25 14.999C25 13.9574 24.6354 13.0719 23.9062 12.3428C23.1771 11.6136 22.2917 11.249 21.25 11.249H16.25V8.74902H21.25C22.9792 8.74902 24.4533 9.35861 25.6725 10.5778C26.8917 11.7969 27.5008 13.2707 27.5 14.999C27.5 16.7282 26.8904 18.2024 25.6713 19.4215C24.4521 20.6407 22.9783 21.2499 21.25 21.249H16.25Z" fill="#DCA277"/>
</svg>
