<svg width="36" height="36" viewBox="0 0 36 36" fill="none" xmlns="http://www.w3.org/2000/svg">
<path d="M18 28C16.3431 28 15 29.3431 15 31C15 32.6569 16.3431 34 18 34C19.6568 34 21 32.6569 21 31C21 29.3431 19.6568 28 18 28Z" fill="#DCA277"/>
<path d="M18 14.6001C16.3431 14.6001 15 15.9432 15 17.6001C15 19.257 16.3431 20.6001 18 20.6001C19.6568 20.6001 21 19.257 21 17.6001C21 15.9432 19.6568 14.6001 18 14.6001Z" fill="#DCA277"/>
<path d="M18 0.999999C16.3431 0.999999 15 2.34314 15 4C15 5.65685 16.3431 7 18 7C19.6568 7 21 5.65685 21 4C21 2.34315 19.6568 0.999999 18 0.999999Z" fill="#DCA277"/>
</svg>
