<svg width="39" height="44" viewBox="0 0 39 44" fill="none" xmlns="http://www.w3.org/2000/svg">
<g filter="url(#filter0_d_124_195)">
<path d="M35 29.1429V30.8571H4V29.1429L7.44444 25.7143V15.4286C7.44444 10.1143 10.9406 5.43429 16.0556 3.92571V3.42857C16.0556 2.51926 16.4185 1.64719 17.0644 1.00421C17.7104 0.361223 18.5865 0 19.5 0C20.4135 0 21.2896 0.361223 21.9356 1.00421C22.5815 1.64719 22.9444 2.51926 22.9444 3.42857V3.92571C28.0594 5.43429 31.5556 10.1143 31.5556 15.4286V25.7143L35 29.1429ZM22.9444 32.5714C22.9444 33.4807 22.5815 34.3528 21.9356 34.9958C21.2896 35.6388 20.4135 36 19.5 36C18.5865 36 17.7104 35.6388 17.0644 34.9958C16.4185 34.3528 16.0556 33.4807 16.0556 32.5714" fill="#EBC49B"/>
</g>
<defs>
<filter id="filter0_d_124_195" x="0" y="0" width="39" height="44" filterUnits="userSpaceOnUse" color-interpolation-filters="sRGB">
<feFlood flood-opacity="0" result="BackgroundImageFix"/>
<feColorMatrix in="SourceAlpha" type="matrix" values="0 0 0 0 0 0 0 0 0 0 0 0 0 0 0 0 0 0 127 0" result="hardAlpha"/>
<feOffset dy="4"/>
<feGaussianBlur stdDeviation="2"/>
<feComposite in2="hardAlpha" operator="out"/>
<feColorMatrix type="matrix" values="0 0 0 0 0 0 0 0 0 0 0 0 0 0 0 0 0 0 0.25 0"/>
<feBlend mode="normal" in2="BackgroundImageFix" result="effect1_dropShadow_124_195"/>
<feBlend mode="normal" in="SourceGraphic" in2="effect1_dropShadow_124_195" result="shape"/>
</filter>
</defs>
</svg>
