<svg width="30" height="30" viewBox="0 0 30 30" fill="none" xmlns="http://www.w3.org/2000/svg">
<path d="M15.9999 7.49997C15.9999 7.10215 15.8419 6.72063 15.5606 6.43933C15.2793 6.15803 14.8978 6 14.5 6C14.1022 6 13.7206 6.15803 13.4393 6.43933C13.158 6.72063 13 7.10215 13 7.49997V15.4998C13 16.3278 13.672 16.9998 14.5 16.9998H20.4999C20.8977 16.9998 21.2792 16.8418 21.5605 16.5605C21.8418 16.2792 21.9998 15.8976 21.9998 15.4998C21.9998 15.102 21.8418 14.7205 21.5605 14.4392C21.2792 14.1579 20.8977 13.9998 20.4999 13.9998H15.9999V7.49997Z" fill="#DCA277"/>
<circle cx="15" cy="15" r="13.5" stroke="#DCA277" stroke-width="3"/>
</svg>
