<svg width="30" height="30" viewBox="0 0 30 30" fill="none" xmlns="http://www.w3.org/2000/svg">
<path d="M7.35655 24.8186H7.35667H19.3333C21.2089 24.8186 22.583 24.8181 23.6675 24.722C24.7448 24.6265 25.4904 24.4394 26.1181 24.0925C27.2755 23.4525 28.224 22.427 28.8207 21.1562C29.1472 20.4606 29.3218 19.6358 29.4106 18.4574C29.4997 17.2743 29.5 15.7771 29.5 13.7439V11.5737C29.5 9.54051 29.4997 8.04335 29.4106 6.86019C29.3218 5.68183 29.1472 4.85697 28.8207 4.1614C28.224 2.89063 27.2756 1.86515 26.1181 1.22515L7.35655 24.8186ZM7.35655 24.8186C6.7682 24.8187 6.21313 25.0728 5.81065 25.5097C5.81064 25.5097 5.81062 25.5097 5.8106 25.5097L2.47732 29.1267C2.10691 29.5287 1.6296 29.5797 1.23371 29.4017C0.832024 29.2212 0.5 28.7945 0.5 28.1869V16.2759V11.5737C0.5 9.54051 0.500331 8.04335 0.589422 6.86019M7.35655 24.8186L0.589422 6.86019M0.589422 6.86019C0.678152 5.68183 0.852772 4.85697 1.17925 4.1614L0.589422 6.86019ZM6.33249 0.595635C5.25523 0.69115 4.50961 0.878215 3.88194 1.22512L6.33249 0.595635ZM6.33249 0.595635C7.41696 0.499481 8.79106 0.499023 10.6667 0.499023M6.33249 0.595635L10.6667 0.499023M10.6667 0.499023H19.3333M10.6667 0.499023H19.3333M19.3333 0.499023C21.2089 0.499023 22.583 0.499481 23.6675 0.595635M19.3333 0.499023L23.6675 0.595635M23.6675 0.595635C24.7448 0.69115 25.4904 0.878215 26.1181 1.22512L23.6675 0.595635ZM1.17929 4.16133C1.776 2.8906 2.72443 1.86514 3.88187 1.22515L1.17929 4.16133ZM10 6.73319C9.41157 6.73319 8.85639 6.98721 8.45381 7.42406C8.05249 7.85954 7.83333 8.44205 7.83333 9.04173C7.83333 9.64141 8.05249 10.2239 8.45381 10.6594C8.85639 11.0962 9.41157 11.3503 10 11.3503H20C20.5884 11.3503 21.1436 11.0962 21.5462 10.6594C21.9475 10.2239 22.1667 9.64141 22.1667 9.04173C22.1667 8.44205 21.9475 7.85954 21.5462 7.42406C21.1436 6.98721 20.5884 6.73319 20 6.73319H10ZM10 13.9673C9.41157 13.9673 8.85639 14.2214 8.45381 14.6582C8.05249 15.0937 7.83333 15.6762 7.83333 16.2759C7.83333 16.8756 8.05249 17.4581 8.45381 17.8936C8.85639 18.3304 9.41157 18.5844 10 18.5844H15C15.5884 18.5844 16.1436 18.3304 16.5462 17.8936C16.9475 17.4581 17.1667 16.8756 17.1667 16.2759C17.1667 15.6762 16.9475 15.0937 16.5462 14.6582C16.1436 14.2214 15.5884 13.9673 15 13.9673H10Z" fill="#DCA277" stroke="black"/>
</svg>
