<svg width="30" height="30" viewBox="0 0 30 30" fill="none" xmlns="http://www.w3.org/2000/svg">
<path d="M14.25 18.749L24.75 11.999L14.25 5.24902V18.749ZM9 23.999C8.175 23.999 7.469 23.7055 6.882 23.1185C6.295 22.5315 6.001 21.825 6 20.999V2.99902C6 2.17402 6.294 1.46802 6.882 0.881023C7.47 0.294023 8.176 2.34374e-05 9 -0.000976562H27C27.825 -0.000976562 28.5315 0.293024 29.1195 0.881023C29.7075 1.46902 30.001 2.17502 30 2.99902V20.999C30 21.824 29.7065 22.5305 29.1195 23.1185C28.5325 23.7065 27.826 24 27 23.999H9ZM3 29.999C2.175 29.999 1.469 29.7055 0.882 29.1185C0.295 28.5315 0.001 27.825 0 26.999V5.99902H3V26.999H24V29.999H3Z" fill="#DCA277"/>
</svg>
