<svg width="46" height="51" viewBox="0 0 46 51" fill="none" xmlns="http://www.w3.org/2000/svg">
<path d="M9.06055 22.8172C9.06055 16.3429 9.06055 13.1035 11.0494 11.0934C13.036 9.08106 16.2377 9.08105 22.6364 9.08105H29.4244C35.8231 9.08105 39.0248 9.08106 41.0114 11.0934C43.0002 13.1035 43.0002 16.3429 43.0002 22.8172V34.2641C43.0002 40.7384 43.0002 43.9778 41.0114 45.9879C39.0248 48.0002 35.8231 48.0002 29.4244 48.0002H22.6364C16.2377 48.0002 13.036 48.0002 11.0494 45.9879C9.06055 43.9778 9.06055 40.7384 9.06055 34.2641V22.8172Z" stroke="#EBC49B" stroke-width="5"/>
<path d="M9.78794 41.9192C7.98766 41.9192 6.26113 41.1956 4.98814 39.9076C3.71516 38.6196 3 36.8726 3 35.0511V21.3149C3 12.6817 3 8.36398 5.65182 5.68313C8.30138 3 12.5687 3 21.1012 3H30.1517C31.952 3 33.6786 3.7236 34.9515 5.01162C36.2245 6.29964 36.9397 8.04656 36.9397 9.86809" stroke="#EBC49B" stroke-width="5"/>
</svg>
