<svg width="30" height="30" viewBox="0 0 30 30" fill="none" xmlns="http://www.w3.org/2000/svg">
<path d="M15 2.99994C17.3923 3 19.73 3.71513 21.7129 5.0535C23.6958 6.39187 25.2334 8.29239 26.1283 10.511C27.0232 12.7297 27.2345 15.1652 26.7351 17.5048C26.2356 19.8444 25.0483 21.9813 23.3255 23.6412C21.6027 25.301 19.4231 26.4081 17.0666 26.8201C14.71 27.2322 12.284 26.9305 10.1002 25.9537C7.9164 24.9769 6.07438 23.3697 4.81068 21.3384C3.54698 19.3071 2.91929 16.9444 3.0082 14.5537C3.01652 14.3561 2.98569 14.1589 2.91749 13.9733C2.84929 13.7877 2.74506 13.6174 2.61079 13.4722C2.47653 13.327 2.31489 13.2098 2.13516 13.1273C1.95544 13.0449 1.76118 12.9987 1.56356 12.9916C1.36594 12.9845 1.16887 13.0165 0.983674 13.0859C0.79848 13.1552 0.628822 13.2604 0.484461 13.3956C0.3401 13.5307 0.223886 13.6931 0.142504 13.8733C0.0611226 14.0535 0.0161796 14.2481 0.010261 14.4457C-0.117593 17.9016 0.952603 21.2954 3.03969 24.0529C5.12679 26.8103 8.10255 28.7618 11.4633 29.5771C14.824 30.3925 18.3632 30.0215 21.4819 28.527C24.6005 27.0326 27.1069 24.5064 28.5769 21.3762C30.0469 18.2459 30.3901 14.7039 29.5484 11.3497C28.7067 7.99542 26.7319 5.03505 23.9582 2.96964C21.1845 0.904237 17.7824 -0.139316 14.3276 0.0156318C10.8729 0.170579 7.57782 1.51451 5.00016 3.81993V1.49997C5.00016 1.10215 4.84213 0.72063 4.56083 0.439331C4.27953 0.158032 3.89801 0 3.50019 0C3.10238 0 2.72085 0.158032 2.43955 0.439331C2.15825 0.72063 2.00022 1.10215 2.00022 1.49997V7.49985C2.00022 8.32784 2.67221 8.99983 3.50019 8.99983H9.50008C9.89789 8.99983 10.2794 8.84179 10.5607 8.56049C10.842 8.27919 11 7.89767 11 7.49985C11 7.10204 10.842 6.72051 10.5607 6.43921C10.2794 6.15792 9.89789 5.99988 9.50008 5.99988H7.06212C9.25215 4.06279 12.0762 2.99551 15 2.99994ZM16 7.49985C16 7.10204 15.8419 6.72051 15.5606 6.43921C15.2793 6.15792 14.8978 5.99988 14.5 5.99988C14.1022 5.99988 13.7206 6.15792 13.4393 6.43921C13.158 6.72051 13 7.10204 13 7.49985V15.4997C13 16.3277 13.672 16.9997 14.5 16.9997H20.4999C20.8977 16.9997 21.2792 16.8416 21.5605 16.5603C21.8418 16.279 21.9998 15.8975 21.9998 15.4997C21.9998 15.1019 21.8418 14.7204 21.5605 14.4391C21.2792 14.1578 20.8977 13.9997 20.4999 13.9997H16V7.49985Z" fill="#DCA277"/>
</svg>
