<svg width="30" height="30" viewBox="0 0 30 30" fill="none" xmlns="http://www.w3.org/2000/svg">
<path d="M30 13.7301V27.5988C30 28.2354 29.7366 28.8459 29.2677 29.296C28.7989 29.7461 28.163 29.999 27.5 29.999H21.25C20.5869 29.999 19.9511 29.7461 19.4822 29.296C19.0134 28.8459 18.75 28.2354 18.75 27.5988V21.5983C18.75 21.28 18.6183 20.9748 18.3839 20.7497C18.1494 20.5246 17.8315 20.3982 17.5 20.3982H12.5C12.1685 20.3982 11.8505 20.5246 11.6161 20.7497C11.3817 20.9748 11.25 21.28 11.25 21.5983V27.5988C11.25 28.2354 10.9866 28.8459 10.5178 29.296C10.0489 29.7461 9.41303 29.999 8.74999 29.999H2.5C1.83696 29.999 1.20107 29.7461 0.732232 29.296C0.263392 28.8459 2.88872e-08 28.2354 2.88872e-08 27.5988V13.7301C-5.25669e-05 13.398 0.0717174 13.0694 0.210768 12.7652C0.349818 12.461 0.553121 12.1878 0.807811 11.963L13.3078 0.640027L13.325 0.623525C13.7852 0.221691 14.3849 -0.000976562 15.007 -0.000976562C15.6291 -0.000976563 16.2288 0.221691 16.689 0.623525C16.6944 0.629395 16.7001 0.634909 16.7062 0.640027L29.2062 11.963C29.4584 12.189 29.659 12.4627 29.7956 12.7668C29.9322 13.071 30.0018 13.3989 30 13.7301Z" fill="#DCA277"/>
</svg>
