<svg width="30" height="34" viewBox="0 0 30 34" fill="none" xmlns="http://www.w3.org/2000/svg">
<path d="M29.5954 22.9679C28.2932 20.6181 27.6017 17.2452 27.6017 13.2207C27.6017 9.71439 26.274 6.35164 23.9108 3.87227C21.5476 1.3929 18.3425 0 15.0004 0C11.6583 0 8.45314 1.3929 6.08994 3.87227C3.72674 6.35164 2.39911 9.71439 2.39911 13.2207C2.39911 17.2468 1.71054 20.6181 0.408411 22.9679C0.142706 23.4472 0.00186154 23.9914 1.83268e-05 24.5458C-0.00182489 25.1003 0.135398 25.6455 0.39791 26.1267C0.658761 26.6082 1.03737 27.0079 1.49465 27.2846C1.95193 27.5613 2.47131 27.7049 2.99917 27.7006H8.42672C8.57558 29.4219 9.33253 31.0225 10.5489 32.1881C11.7652 33.3537 13.353 34 15.0004 34C16.6477 34 18.2356 33.3537 19.4519 32.1881C20.6682 31.0225 21.4252 29.4219 21.5741 27.7006H27.0016C27.5287 27.704 28.0471 27.56 28.5036 27.2834C28.96 27.0068 29.3379 26.6075 29.5984 26.1267C29.862 25.6462 30.0005 25.1013 30 24.5469C29.9995 23.9924 29.8599 23.4479 29.5954 22.9679ZM15.0004 30.2188C14.3087 30.219 13.6383 29.9684 13.1025 29.5095C12.5666 29.0506 12.1984 28.4116 12.0601 27.7006H17.9407C17.8024 28.4116 17.4341 29.0506 16.8983 29.5095C16.3625 29.9684 15.692 30.219 15.0004 30.2188ZM3.99827 23.9233C5.32591 21.0902 5.99948 17.4923 5.99948 13.2207C5.99948 10.7162 6.94778 8.31424 8.63578 6.54326C10.3238 4.77228 12.6132 3.77736 15.0004 3.77736C17.3876 3.77736 19.677 4.77228 21.365 6.54326C23.053 8.31424 24.0013 10.7162 24.0013 13.2207C24.0013 17.4907 24.6734 21.0902 26.001 23.9233H3.99827Z" fill="#DCA277"/>
</svg>
