<svg width="30" height="30" viewBox="0 0 30 30" fill="none" xmlns="http://www.w3.org/2000/svg">
<path d="M22.375 21.7365C22.05 20.7365 21.1125 19.999 20 19.999H18.75V16.249C18.75 15.9175 18.6183 15.5996 18.3839 15.3651C18.1495 15.1307 17.8315 14.999 17.5 14.999H10V12.499H12.5C12.8315 12.499 13.1495 12.3673 13.3839 12.1329C13.6183 11.8985 13.75 11.5805 13.75 11.249V8.74902H16.25C16.913 8.74902 17.5489 8.48563 18.0178 8.01679C18.4866 7.54795 18.75 6.91206 18.75 6.24902V5.73652C20.2456 6.33948 21.5728 7.29587 22.618 8.52382C23.6633 9.75177 24.3954 11.2147 24.7517 12.7874C25.108 14.3601 25.0779 15.9957 24.664 17.5543C24.2501 19.1128 23.4647 20.5478 22.375 21.7365ZM13.75 24.9115C8.8125 24.299 5 20.099 5 14.999C5 14.224 5.1 13.474 5.2625 12.7615L11.25 18.749V19.999C11.25 20.6621 11.5134 21.2979 11.9822 21.7668C12.4511 22.2356 13.087 22.499 13.75 22.499M15 2.49902C13.3585 2.49902 11.733 2.82235 10.2165 3.45053C8.69989 4.07871 7.3219 4.99946 6.16117 6.16019C3.81696 8.50439 2.5 11.6838 2.5 14.999C2.5 18.3142 3.81696 21.4937 6.16117 23.8379C7.3219 24.9986 8.69989 25.9193 10.2165 26.5475C11.733 27.1757 13.3585 27.499 15 27.499C18.3152 27.499 21.4946 26.1821 23.8388 23.8379C26.183 21.4937 27.5 18.3142 27.5 14.999C27.5 13.3575 27.1767 11.732 26.5485 10.2155C25.9203 8.69891 24.9996 7.32092 23.8388 6.16019C22.6781 4.99946 21.3001 4.07871 19.7835 3.45053C18.267 2.82235 16.6415 2.49902 15 2.49902Z" fill="#DCA277"/>
</svg>
