<svg width="22" height="22" viewBox="0 0 22 22" fill="none" xmlns="http://www.w3.org/2000/svg">
<path d="M17.6667 7.66667C17.3518 7.66667 17.0881 7.56 16.8756 7.34667C16.663 7.13333 16.5563 6.86963 16.5556 6.55555V5.44444H15.4444C15.1296 5.44444 14.8659 5.33778 14.6533 5.12444C14.4407 4.91111 14.3341 4.64741 14.3333 4.33333C14.3333 4.01852 14.44 3.75481 14.6533 3.54222C14.8667 3.32963 15.1304 3.22296 15.4444 3.22222H16.5556V2.11111C16.5556 1.7963 16.6622 1.53259 16.8756 1.32C17.0889 1.10741 17.3526 1.00074 17.6667 1C17.9815 1 18.2456 1.10667 18.4589 1.32C18.6722 1.53333 18.7785 1.79704 18.7778 2.11111V3.22222H19.8889C20.2037 3.22222 20.4678 3.32889 20.6811 3.54222C20.8944 3.75556 21.0007 4.01926 21 4.33333C21 4.64815 20.8933 4.91222 20.68 5.12555C20.4667 5.33889 20.203 5.44518 19.8889 5.44444H18.7778V6.55555C18.7778 6.87037 18.6711 7.13444 18.4578 7.34778C18.2444 7.56111 17.9807 7.66741 17.6667 7.66667ZM5.44444 16.5556H16.5556C16.7778 16.5556 16.9444 16.4537 17.0556 16.25C17.1667 16.0463 17.1481 15.8519 17 15.6667L13.9444 11.5833C13.8333 11.4352 13.6852 11.3611 13.5 11.3611C13.3148 11.3611 13.1667 11.4352 13.0556 11.5833L10.1667 15.4444L8.11111 12.6944C8 12.5463 7.85185 12.4722 7.66667 12.4722C7.48148 12.4722 7.33333 12.5463 7.22222 12.6944L5 15.6667C4.85185 15.8519 4.83333 16.0463 4.94444 16.25C5.05555 16.4537 5.22222 16.5556 5.44444 16.5556ZM3.22222 21C2.61111 21 2.08815 20.7822 1.65333 20.3467C1.21852 19.9111 1.00074 19.3881 1 18.7778V3.22222C1 2.61111 1.21778 2.08815 1.65333 1.65333C2.08889 1.21852 2.61185 1.00074 3.22222 1H12.1111C12.4259 1 12.69 1.10667 12.9033 1.32C13.1167 1.53333 13.223 1.79704 13.2222 2.11111V5.44444C13.2222 5.75926 13.3289 6.02333 13.5422 6.23667C13.7556 6.45 14.0193 6.5563 14.3333 6.55555H15.4444V7.66667C15.4444 7.98148 15.5511 8.24555 15.7644 8.45889C15.9778 8.67222 16.2415 8.77852 16.5556 8.77778H19.8889C20.2037 8.77778 20.4678 8.88444 20.6811 9.09778C20.8944 9.31111 21.0007 9.57481 21 9.88889V18.7778C21 19.3889 20.7826 19.9122 20.3478 20.3478C19.913 20.7833 19.3896 21.0007 18.7778 21H3.22222Z" fill="#DCA277"/>
</svg>
