<svg width="30" height="30" viewBox="0 0 30 30" fill="none" xmlns="http://www.w3.org/2000/svg">
<path fill-rule="evenodd" clip-rule="evenodd" d="M17.809 0.227023C17.2248 -0.00097663 16.4827 -0.000976562 15.0001 -0.000976562C13.5175 -0.000976562 12.777 -0.00097663 12.1912 0.227023C11.4135 0.53034 10.7945 1.11467 10.4702 1.85152C10.3218 2.18602 10.265 2.57752 10.2413 3.14602C10.2307 3.55793 10.1098 3.96048 9.88988 4.3156C9.66996 4.67073 9.35833 4.9667 8.98446 5.17552C8.60354 5.37668 8.17534 5.48324 7.73954 5.48534C7.30373 5.48744 6.87442 5.385 6.49137 5.18752C5.9577 4.92052 5.57087 4.77352 5.18878 4.72552C4.35283 4.62125 3.50736 4.83472 2.83621 5.31952C2.33412 5.68252 1.96308 6.28852 1.22257 7.49902C0.480485 8.70952 0.111021 9.31402 0.0273395 9.90652C-0.0831838 10.6955 0.144179 11.4935 0.658901 12.125C0.892579 12.413 1.22257 12.6545 1.73256 12.9575C2.48569 13.403 2.96884 14.162 2.96884 14.999C2.96884 15.836 2.48569 16.595 1.73414 17.039C1.22257 17.3435 0.892579 17.585 0.657322 17.873C0.403249 18.1849 0.21676 18.5416 0.108628 18.9224C0.000497183 19.3032 -0.0271314 19.7005 0.0273395 20.0915C0.111021 20.6825 0.480485 21.2885 1.22257 22.499C1.96465 23.7095 2.33412 24.314 2.83621 24.6785C3.50567 25.163 4.35196 25.376 5.18878 25.2725C5.57087 25.2245 5.9577 25.0775 6.49137 24.8105C6.87461 24.6128 7.30422 24.5102 7.74033 24.5123C8.17644 24.5144 8.60493 24.6211 8.98604 24.8225C9.75339 25.2425 10.2081 26.015 10.2413 26.852C10.265 27.422 10.3218 27.812 10.4702 28.1465C10.7923 28.8815 11.4112 29.4665 12.1912 29.771C12.7754 29.999 13.5175 29.999 15.0001 29.999C16.4827 29.999 17.2248 29.999 17.809 29.771C18.5866 29.4677 19.2057 28.8834 19.53 28.1465C19.6784 27.812 19.7352 27.422 19.7589 26.852C19.7905 26.015 20.2468 25.241 21.0157 24.8225C21.3966 24.6214 21.8248 24.5148 22.2606 24.5127C22.6964 24.5106 23.1258 24.613 23.5088 24.8105C24.0425 25.0775 24.4293 25.2245 24.8114 25.2725C25.6482 25.3775 26.4945 25.163 27.164 24.6785C27.6661 24.3155 28.0371 23.7095 28.7776 22.499C29.5197 21.2885 29.8892 20.684 29.9728 20.0915C30.0271 19.7004 29.9992 19.303 29.8908 18.9222C29.7824 18.5414 29.5956 18.1848 29.3413 17.873C29.1076 17.585 28.7776 17.3435 28.2676 17.0405C27.5145 16.595 27.0313 15.836 27.0313 14.999C27.0313 14.162 27.5145 13.403 28.266 12.959C28.7776 12.6545 29.1076 12.413 29.3429 12.125C29.5969 11.8131 29.7834 11.4565 29.8915 11.0757C29.9997 10.6949 30.0273 10.2975 29.9728 9.90652C29.8892 9.31552 29.5197 8.70952 28.7776 7.49902C28.0355 6.28852 27.6661 5.68402 27.164 5.31952C26.4928 4.83472 25.6473 4.62125 24.8114 4.72552C24.4293 4.77352 24.0425 4.92052 23.5088 5.18752C23.1256 5.38527 22.696 5.48785 22.2598 5.48575C21.8237 5.48365 21.3952 5.37694 21.0141 5.17552C20.6406 4.96651 20.3292 4.67046 20.1096 4.31535C19.89 3.96024 19.7693 3.55779 19.7589 3.14602C19.7352 2.57602 19.6784 2.18602 19.53 1.85152C19.3695 1.48663 19.1349 1.15535 18.8396 0.87661C18.5443 0.597873 18.1941 0.37714 17.809 0.227023ZM15.0001 19.499C17.6369 19.499 19.7731 17.4845 19.7731 14.999C19.7731 12.5135 17.6353 10.499 15.0001 10.499C12.3633 10.499 10.2271 12.5135 10.2271 14.999C10.2271 17.4845 12.3649 19.499 15.0001 19.499Z" fill="#DCA277"/>
</svg>
