<svg width="30" height="30" viewBox="0 0 30 30" fill="none" xmlns="http://www.w3.org/2000/svg">
<path d="M25.5 9H4.5C3.675 9 3 8.325 3 7.5C3 6.675 3.675 6 4.5 6H25.5C26.325 6 27 6.675 27 7.5C27 8.325 26.325 9 25.5 9ZM22.5 0H7.5C6.675 0 6 0.675 6 1.5C6 2.325 6.675 3 7.5 3H22.5C23.325 3 24 2.325 24 1.5C24 0.675 23.325 0 22.5 0ZM30 15V27C30 28.65 28.65 30 27 30H3C1.35 30 0 28.65 0 27V15C0 13.35 1.35 12 3 12H27C28.65 12 30 13.35 30 15ZM19.785 20.34L12 16.095V25.89L19.785 21.66C19.9041 21.5957 20.0035 21.5005 20.0728 21.3843C20.1422 21.2681 20.1788 21.1353 20.1788 21C20.1788 20.8647 20.1422 20.7319 20.0728 20.6157C20.0035 20.4995 19.9041 20.4043 19.785 20.34Z" fill="#DCA277"/>
</svg>
