<svg width="20" height="20" viewBox="0 0 20 20" fill="none" xmlns="http://www.w3.org/2000/svg">
<path d="M1.07143 2.22266C0.787268 2.22266 0.514746 2.33554 0.313814 2.53647C0.112882 2.7374 0 3.00992 0 3.29408C0 3.57825 0.112882 3.85077 0.313814 4.0517C0.514746 4.25263 0.787268 4.36551 1.07143 4.36551H18.9286C19.2127 4.36551 19.4853 4.25263 19.6862 4.0517C19.8871 3.85077 20 3.57825 20 3.29408C20 3.00992 19.8871 2.7374 19.6862 2.53647C19.4853 2.33554 19.2127 2.22266 18.9286 2.22266H1.07143ZM1.07143 6.50837C0.787268 6.50837 0.514746 6.62125 0.313814 6.82218C0.112882 7.02312 0 7.29564 0 7.5798C0 7.86396 0.112882 8.13648 0.313814 8.33741C0.514746 8.53835 0.787268 8.65123 1.07143 8.65123H18.9286C19.2127 8.65123 19.4853 8.53835 19.6862 8.33741C19.8871 8.13648 20 7.86396 20 7.5798C20 7.29564 19.8871 7.02312 19.6862 6.82218C19.4853 6.62125 19.2127 6.50837 18.9286 6.50837H1.07143ZM0 11.8655C0 11.5814 0.112882 11.3088 0.313814 11.1079C0.514746 10.907 0.787268 10.7941 1.07143 10.7941H18.9286C19.2127 10.7941 19.4853 10.907 19.6862 11.1079C19.8871 11.3088 20 11.5814 20 11.8655C20 12.1497 19.8871 12.4222 19.6862 12.6231C19.4853 12.8241 19.2127 12.9369 18.9286 12.9369H1.07143C0.787268 12.9369 0.514746 12.8241 0.313814 12.6231C0.112882 12.4222 0 12.1497 0 11.8655ZM1.07143 15.0798C0.787268 15.0798 0.514746 15.1927 0.313814 15.3936C0.112882 15.5945 0 15.8671 0 16.1512C0 16.4354 0.112882 16.7079 0.313814 16.9088C0.514746 17.1098 0.787268 17.2227 1.07143 17.2227H13.2143C13.4984 17.2227 13.771 17.1098 13.9719 16.9088C14.1728 16.7079 14.2857 16.4354 14.2857 16.1512C14.2857 15.8671 14.1728 15.5945 13.9719 15.3936C13.771 15.1927 13.4984 15.0798 13.2143 15.0798H1.07143Z" fill="#DCA277"/>
</svg>
