<svg width="25" height="25" viewBox="0 0 25 25" fill="none" xmlns="http://www.w3.org/2000/svg">
<g clip-path="url(#clip0_127_468)">
<path d="M12.9167 20.8333C11.7661 20.8333 10.8333 21.7661 10.8333 22.9167C10.8333 24.0673 11.7661 25 12.9167 25C14.0673 25 15 24.0673 15 22.9167C15 21.7661 14.0673 20.8333 12.9167 20.8333Z" fill="#EBC49B"/>
<path d="M12.9167 10.8333C11.7661 10.8333 10.8333 11.7661 10.8333 12.9167C10.8333 14.0673 11.7661 15 12.9167 15C14.0673 15 15 14.0673 15 12.9167C15 11.7661 14.0673 10.8333 12.9167 10.8333Z" fill="#EBC49B"/>
<path d="M12.9167 -0.000162784C11.7661 -0.000162884 10.8333 0.932577 10.8333 2.08317C10.8333 3.23376 11.7661 4.1665 12.9167 4.1665C14.0673 4.1665 15 3.23376 15 2.08317C15 0.932577 14.0673 -0.000162683 12.9167 -0.000162784Z" fill="#EBC49B"/>
</g>
<defs>
<clipPath id="clip0_127_468">
<rect width="25" height="25" fill="white" transform="translate(25 25) rotate(-180)"/>
</clipPath>
</defs>
</svg>
