<svg width="40" height="40" viewBox="0 0 40 40" fill="none" xmlns="http://www.w3.org/2000/svg">
<g clip-path="url(#clip0_526_416)">
<path d="M4.44444 40C3.22222 40 2.1763 39.5652 1.30667 38.6956C0.437037 37.8259 0.00148148 36.7793 0 35.5556V4.44444C0 3.22222 0.435556 2.1763 1.30667 1.30667C2.17778 0.437037 3.2237 0.00148148 4.44444 0H24.4444V11.1111H28.8889V15.5556H40V35.5556C40 36.7778 39.5652 37.8244 38.6956 38.6956C37.8259 39.5667 36.7793 40.0015 35.5556 40H4.44444ZM6.66667 31.1111H33.3333L25 20L18.3333 28.8889L13.3333 22.2222L6.66667 31.1111ZM31.1111 13.3333V8.88889H26.6667V4.44444H31.1111V0H35.5556V4.44444H40V8.88889H35.5556V13.3333H31.1111Z" fill="#DCA277"/>
</g>
<defs>
<clipPath id="clip0_526_416">
<rect width="40" height="40" fill="white"/>
</clipPath>
</defs>
</svg>
