<svg width="30" height="30" viewBox="0 0 30 30" fill="none" xmlns="http://www.w3.org/2000/svg">
<path d="M4.6875 0C3.4443 0 2.25201 0.564412 1.37294 1.56907C0.49386 2.57373 0 3.93634 0 5.35714V24.6429C0 26.0637 0.49386 27.4263 1.37294 28.4309C2.25201 29.4356 3.4443 30 4.6875 30H25.3125C26.5557 30 27.748 29.4356 28.6271 28.4309C29.5061 27.4263 30 26.0637 30 24.6429V5.35714C30 3.93634 29.5061 2.57373 28.6271 1.56907C27.748 0.564412 26.5557 0 25.3125 0H4.6875ZM12.6844 8.73429L20.1844 14.0957C20.3171 14.1909 20.4268 14.3225 20.5035 14.4786C20.5803 14.6347 20.6215 14.8103 20.6236 14.9893C20.6256 15.1683 20.5884 15.3451 20.5153 15.5034C20.4422 15.6618 20.3355 15.7966 20.205 15.8957L12.705 21.5721C12.5637 21.679 12.3997 21.7402 12.2305 21.749C12.0612 21.7579 11.893 21.7142 11.7437 21.6225C11.5945 21.5309 11.4697 21.3947 11.3828 21.2285C11.2959 21.0623 11.25 20.8722 11.25 20.6786V9.64286C11.25 9.4516 11.2948 9.26383 11.3797 9.09904C11.4647 8.93425 11.5867 8.79845 11.733 8.70574C11.8794 8.61302 12.0448 8.56678 12.2121 8.5718C12.3794 8.57682 12.5425 8.63292 12.6844 8.73429Z" fill="#DCA277"/>
</svg>
