<svg width="30" height="30" viewBox="0 0 30 30" fill="none" xmlns="http://www.w3.org/2000/svg">
<path d="M15 -0.000976562C6.72 -0.000976562 0 6.71902 0 14.999C0 23.279 6.72 29.999 15 29.999C23.28 29.999 30 23.279 30 14.999C30 6.71902 23.28 -0.000976562 15 -0.000976562ZM16.365 24.224C16.2602 24.3268 16.1275 24.3966 15.9834 24.4246C15.8393 24.4527 15.6901 24.4379 15.5544 24.382C15.4186 24.3261 15.3023 24.2316 15.2197 24.1102C15.1372 23.9888 15.0921 23.8458 15.09 23.699V22.499H15C13.08 22.499 11.16 21.764 9.69 20.309C8.67154 19.2881 7.96867 17.9954 7.66542 16.5856C7.36218 15.1758 7.47139 13.7084 7.98 12.359C8.265 11.594 9.27 11.399 9.84 11.984C10.17 12.314 10.245 12.794 10.095 13.214C9.405 15.074 9.795 17.234 11.295 18.734C12.345 19.784 13.725 20.279 15.105 20.249V18.839C15.105 18.164 15.915 17.834 16.38 18.314L18.81 20.744C19.11 21.044 19.11 21.509 18.81 21.809L16.365 24.224ZM20.16 18.029C20.0049 17.8695 19.8986 17.669 19.8534 17.4511C19.8083 17.2333 19.8262 17.0071 19.905 16.799C20.595 14.939 20.205 12.779 18.705 11.279C17.655 10.229 16.275 9.71902 14.91 9.74902V11.159C14.91 11.834 14.1 12.164 13.635 11.684L11.19 9.26902C10.89 8.96902 10.89 8.50402 11.19 8.20402L13.62 5.77402C13.7248 5.67124 13.8575 5.60149 14.0016 5.57341C14.1457 5.54532 14.2949 5.56015 14.4306 5.61605C14.5664 5.67195 14.6827 5.76646 14.7653 5.88786C14.8478 6.00927 14.8929 6.15223 14.895 6.29902V7.51402C16.845 7.48402 18.81 8.18902 20.295 9.68902C21.3135 10.71 22.0163 12.0026 22.3196 13.4125C22.6228 14.8223 22.5136 16.2896 22.005 17.639C21.72 18.419 20.73 18.614 20.16 18.029Z" fill="#DCA277"/>
</svg>
