<svg width="30" height="30" viewBox="0 0 30 30" fill="none" xmlns="http://www.w3.org/2000/svg">
<path d="M29.5021 17.4578C29.2842 17.2394 29.0109 17.0846 28.7116 17.0097C28.4123 16.9349 28.0982 16.943 27.8032 17.0331C25.7419 17.6553 23.5505 17.7067 21.4623 17.1821C19.3741 16.6575 17.4674 15.5764 15.9452 14.0539C14.423 12.5315 13.3424 10.6248 12.8184 8.53684C12.2944 6.44891 12.3468 4.258 12.9698 2.19746C13.0607 1.90234 13.0694 1.58802 12.995 1.28833C12.9206 0.988625 12.7658 0.714879 12.5474 0.496526C12.329 0.278173 12.0552 0.123475 11.7555 0.0490691C11.4557 -0.0253367 11.1413 -0.016635 10.8461 0.0742384C7.74608 1.02685 5.0256 2.93289 3.07196 5.52102C1.36352 7.7913 0.321674 10.4926 0.0633276 13.3219C-0.195019 16.1512 0.340357 18.9965 1.60938 21.5386C2.87841 24.0806 4.83087 26.2188 7.24768 27.7132C9.66449 29.2076 12.45 29.9992 15.2917 29.999C18.6095 30.0087 21.8388 28.9302 24.4845 26.9288C27.0719 24.9736 28.9763 22.2523 29.9269 19.1521C30.0162 18.8577 30.0238 18.5446 29.949 18.2462C29.8742 17.9478 29.7198 17.6753 29.5021 17.4578ZM22.4401 24.2153C20.1501 25.9389 17.3144 26.7776 14.455 26.577C11.5956 26.3764 8.90484 25.15 6.87797 23.1236C4.85109 21.0972 3.62447 18.4071 3.42384 15.5483C3.22321 12.6895 4.06207 9.85451 5.78605 7.56497C6.6932 6.3653 7.81745 5.34645 9.10044 4.56132C9.07496 4.92368 9.06221 5.28746 9.06221 5.65266C9.06671 9.7057 10.6791 13.5914 13.5457 16.4574C16.4123 19.3233 20.2989 20.9354 24.3529 20.9399C24.7181 20.9399 25.082 20.9271 25.4444 20.9017C24.6595 22.1846 23.6404 23.3087 22.4401 24.2153Z" fill="#DCA277"/>
</svg>
