<svg width="30" height="30" viewBox="0 0 30 30" fill="none" xmlns="http://www.w3.org/2000/svg">
<path fill-rule="evenodd" clip-rule="evenodd" d="M20.6253 -0.000976562C20.8715 -0.000976567 21.1153 0.0421333 21.3428 0.125891C21.5703 0.209649 21.777 0.332414 21.9511 0.487179C22.1252 0.641943 22.2633 0.825675 22.3576 1.02788C22.4518 1.23009 22.5003 1.44682 22.5003 1.66569C22.5003 1.88456 22.4518 2.10129 22.3576 2.3035C22.2633 2.5057 22.1252 2.68944 21.9511 2.8442C21.777 2.99897 21.5703 3.12173 21.3428 3.20549C21.1153 3.28925 20.8715 3.33236 20.6253 3.33236H3.75005V24.999C3.75005 25.441 3.9476 25.865 4.29923 26.1775C4.65087 26.4901 5.12779 26.6657 5.62508 26.6657H20.6253C21.1226 26.6657 21.5995 26.8413 21.9511 27.1538C22.3028 27.4664 22.5003 27.8903 22.5003 28.3324C22.5003 28.7744 22.3028 29.1983 21.9511 29.5109C21.5995 29.8234 21.1226 29.999 20.6253 29.999H5.62508C4.13321 29.999 2.70245 29.4722 1.64755 28.5346C0.59264 27.5969 0 26.3251 0 24.999V1.66569C0 1.22366 0.197547 0.79974 0.549182 0.487179C0.900818 0.174618 1.37774 -0.000976562 1.87503 -0.000976562H20.6253ZM23.8259 8.82069C23.5638 8.58777 23.2299 8.42913 22.8664 8.3648C22.503 8.30047 22.1262 8.33333 21.7837 8.45924C21.4412 8.58515 21.1484 8.79846 20.9422 9.07222C20.736 9.34598 20.6257 9.66791 20.6253 9.99736V13.3307H9.37512C8.87784 13.3307 8.40092 13.5063 8.04928 13.8188C7.69765 14.1314 7.5001 14.5553 7.5001 14.9974C7.5001 15.4394 7.69765 15.8633 8.04928 16.1759C8.40092 16.4884 8.87784 16.664 9.37512 16.664H20.6253V19.9974C20.6254 20.3269 20.7354 20.6491 20.9414 20.9231C21.1474 21.1971 21.4402 21.4107 21.7828 21.5368C22.1254 21.6629 22.5023 21.6959 22.866 21.6317C23.2297 21.5674 23.5637 21.4087 23.8259 21.1757L29.451 16.1757C29.8025 15.8631 30 15.4393 30 14.9974C30 14.5554 29.8025 14.1316 29.451 13.819L23.8259 8.82069Z" fill="#DCA277"/>
</svg>
