<svg width="30" height="30" viewBox="0 0 30 30" fill="none" xmlns="http://www.w3.org/2000/svg">
<path d="M29.889 27.8004L23.8621 12.0828C23.7508 11.7925 23.562 11.5444 23.3195 11.3698C23.0771 11.1952 22.792 11.1019 22.5003 11.1019C22.2087 11.1019 21.9235 11.1952 21.6811 11.3698C21.4387 11.5444 21.2499 11.7925 21.1386 12.0828L15.1116 27.8004C15.0367 27.9931 14.9978 28.1999 14.9973 28.4089C14.9969 28.6178 15.0347 28.8248 15.1088 29.018C15.1828 29.2111 15.2916 29.3866 15.4288 29.5344C15.566 29.6821 15.729 29.7993 15.9084 29.879C16.0878 29.9587 16.2801 29.9995 16.4741 29.999C16.6682 29.9985 16.8603 29.9567 17.0393 29.8761C17.2184 29.7954 17.3808 29.6774 17.5174 29.529C17.654 29.3805 17.7619 29.2044 17.8351 29.0109L19.0626 25.8104H25.938L27.1655 29.0109C27.2768 29.3013 27.4657 29.5496 27.7081 29.7243C27.9506 29.899 28.2359 29.9922 28.5276 29.9922C28.7697 29.992 29.008 29.9276 29.2215 29.8047C29.435 29.6818 29.617 29.5041 29.7516 29.2874C29.8861 29.0707 29.969 28.8217 29.9928 28.5623C30.0167 28.303 29.9808 28.0413 29.8884 27.8004H29.889ZM20.2794 22.6381L22.5007 16.8449L24.7219 22.6381H20.2794ZM15.7933 21.2624C16.0222 20.922 16.1163 20.4978 16.0549 20.0828C15.9935 19.6678 15.7816 19.296 15.4659 19.049C15.4525 19.0382 14.4614 18.2465 13.0223 16.545C15.6775 12.6747 17.1815 8.27165 17.7949 6.19953H19.9559C20.3467 6.19953 20.7214 6.03241 20.9977 5.73495C21.274 5.43748 21.4292 5.03403 21.4292 4.61335C21.4292 4.19267 21.274 3.78922 20.9977 3.49176C20.7214 3.19429 20.3467 3.02718 19.9559 3.02718H12.1879V1.5852C12.1879 1.16452 12.0326 0.761069 11.7564 0.463603C11.4801 0.166138 11.1053 -0.000976562 10.7146 -0.000976562C10.3239 -0.000976562 9.94914 0.166138 9.67285 0.463603C9.39656 0.761069 9.24134 1.16452 9.24134 1.5852V3.02718H1.47326C1.08253 3.02718 0.707796 3.19429 0.431507 3.49176C0.155218 3.78922 0 4.19267 0 4.61335C0 5.03403 0.155218 5.43748 0.431507 5.73495C0.707796 6.03241 1.08253 6.19953 1.47326 6.19953H14.6824C14.0448 8.14259 12.8709 11.2104 11.0802 14.0122C8.97683 11.0071 8.19533 9.06258 8.1893 9.04671C8.03532 8.66357 7.74724 8.36124 7.38756 8.20528C7.02788 8.04933 6.62559 8.05233 6.26795 8.21364C5.91031 8.37495 5.62615 8.68155 5.47712 9.06696C5.32808 9.45236 5.32617 9.88549 5.47181 10.2724C5.51065 10.3719 6.44617 12.7403 9.01165 16.3237C9.07326 16.4095 9.1342 16.4931 9.19514 16.5767C6.56738 19.7743 3.98918 21.7577 2.91035 22.398C2.56731 22.5994 2.31264 22.9394 2.20238 23.343C2.09211 23.7466 2.13528 24.1808 2.32239 24.5501C2.5095 24.9195 2.82522 25.1937 3.20009 25.3124C3.57496 25.4311 3.97829 25.3846 4.32133 25.1832C4.46598 25.0981 7.57589 23.2444 11.1271 19.0122C12.6352 20.7484 13.6718 21.5674 13.7341 21.615C13.8908 21.7375 14.0684 21.8256 14.2568 21.8742C14.4451 21.9227 14.6405 21.9309 14.8318 21.898C15.023 21.8652 15.2064 21.7921 15.3714 21.6829C15.5364 21.5738 15.6798 21.4306 15.7933 21.2617V21.2624Z" fill="#DCA277"/>
</svg>
