<svg width="30" height="30" viewBox="0 0 30 30" fill="none" xmlns="http://www.w3.org/2000/svg">
<path d="M20.6897 24.7864C21.7625 24.7864 22.6692 24.434 23.41 23.7293C24.1507 23.0245 24.5211 22.1618 24.5211 21.1412C24.5211 20.1205 24.1507 19.2578 23.41 18.5531C22.6692 17.8484 21.7625 17.496 20.6897 17.496C19.6169 17.496 18.7101 17.8484 17.9693 18.5531C17.2286 19.2578 16.8582 20.1205 16.8582 21.1412C16.8582 22.1618 17.2286 23.0245 17.9693 23.7293C18.7101 24.434 19.6169 24.7864 20.6897 24.7864ZM29.5785 29.598C29.2976 29.8654 28.94 29.999 28.5057 29.999C28.0715 29.999 27.7139 29.8654 27.4329 29.598L24.3678 26.6819C23.8314 27.0221 23.2506 27.2773 22.6253 27.4474C22 27.6175 21.3548 27.7025 20.6897 27.7025C18.7739 27.7025 17.1458 27.0649 15.8054 25.7895C14.4649 24.5142 13.7941 22.9648 13.7931 21.1412C13.7931 19.3186 14.4639 17.7696 15.8054 16.4943C17.1469 15.2189 18.775 14.5808 20.6897 14.5798C22.6054 14.5798 24.234 15.218 25.5755 16.4943C26.917 17.7706 27.5872 19.3196 27.5862 21.1412C27.5862 21.773 27.4968 22.3869 27.318 22.9827C27.1392 23.5786 26.871 24.1312 26.5134 24.6406L29.5785 27.5567C29.8595 27.8241 30 28.1643 30 28.5774C30 28.9905 29.8595 29.3307 29.5785 29.598ZM3.06513 29.1606C2.22222 29.1606 1.50089 28.8753 0.90115 28.3047C0.301405 27.7341 0.00102171 27.0474 0 26.2445V2.91518C0 2.11324 0.300383 1.42697 0.90115 0.856375C1.50192 0.285779 2.22324 -4.50906e-06 3.06513 -0.000976562H14.0613C14.47 -0.000976562 14.8598 0.0719276 15.2307 0.217736C15.6015 0.363544 15.9269 0.570105 16.2069 0.83742L23.6398 7.90911C23.9208 8.17642 24.1379 8.48651 24.2912 8.83936C24.4444 9.19222 24.5211 9.56257 24.5211 9.95042V10.6066C24.5211 11.044 24.3356 11.3963 23.9647 11.6637C23.5939 11.931 23.1791 12.0039 22.7203 11.8824C22.3883 11.8095 22.0562 11.7546 21.7241 11.7176C21.3921 11.6807 21.0473 11.6627 20.6897 11.6637C19.2593 11.6637 17.9244 11.9188 16.6851 12.4292C15.4457 12.9395 14.3796 13.6564 13.4866 14.5798H7.66284C7.22861 14.5798 6.86488 14.7198 6.57165 14.9998C6.27842 15.2797 6.13129 15.6258 6.13027 16.0379C6.13027 16.451 6.27739 16.7976 6.57165 17.0775C6.8659 17.3575 7.22963 17.497 7.66284 17.496H11.4943C11.2899 17.9577 11.1305 18.4316 11.0161 18.9176C10.9017 19.4036 10.8184 19.9018 10.7663 20.4121H7.66284C7.22861 20.4121 6.86488 20.5521 6.57165 20.8321C6.27842 21.112 6.13129 21.4581 6.13027 21.8702C6.13027 22.2833 6.27739 22.6299 6.57165 22.9098C6.8659 23.1898 7.22963 23.3293 7.66284 23.3283H10.9962C11.175 24.0816 11.4432 24.7927 11.8008 25.4615C12.1584 26.1303 12.5926 26.7436 13.1034 27.3016C13.461 27.6661 13.5443 28.0671 13.3533 28.5045C13.1622 28.9419 12.8363 29.1606 12.3755 29.1606H3.06513ZM13.7931 2.91518V8.7475C13.7931 9.16063 13.9402 9.50716 14.2345 9.78712C14.5287 10.0671 14.8925 10.2066 15.3257 10.2056H21.4559L13.7931 2.91518Z" fill="#DCA277"/>
</svg>
