<svg width="30" height="30" viewBox="0 0 30 30" fill="none" xmlns="http://www.w3.org/2000/svg">
<path fill-rule="evenodd" clip-rule="evenodd" d="M13.83 0.19047C14.4877 -0.0324193 15.2063 -0.0614769 15.8833 0.107442L16.17 0.19047L27.8367 4.15317C28.4282 4.35409 28.9445 4.70313 29.3255 5.15963C29.7064 5.61613 29.9363 6.16128 29.9883 6.73157L30 6.98066V15.0766C29.9999 17.5228 29.2707 19.9236 27.8893 22.0256C26.508 24.1276 24.5257 25.8528 22.1517 27.0191L21.7083 27.2289L16.1183 29.7605C15.8105 29.8997 15.4743 29.9799 15.1308 29.996C14.7872 30.0121 14.4437 29.9638 14.1217 29.8541L13.8817 29.7605L8.29167 27.2289C5.87602 26.1349 3.83129 24.4704 2.37334 22.4112C0.915388 20.352 0.0983009 17.9744 0.00833352 15.5295L0 15.0766V6.98066C9.69175e-06 6.40871 0.179378 5.84854 0.517223 5.36534C0.855068 4.88214 1.33749 4.4958 1.90833 4.2513L2.16333 4.15317L13.83 0.19047ZM20.7217 9.90324L13.0583 16.8444L10.1117 14.1754C9.79893 13.8924 9.37486 13.7334 8.93274 13.7336C8.49063 13.7337 8.06668 13.8929 7.75417 14.1762C7.44165 14.4594 7.26617 14.8435 7.26633 15.244C7.26649 15.6444 7.44227 16.0284 7.755 16.3115L11.7617 19.9406C11.9319 20.0949 12.1341 20.2172 12.3565 20.3007C12.579 20.3842 12.8175 20.4272 13.0583 20.4272C13.2992 20.4272 13.5376 20.3842 13.7601 20.3007C13.9826 20.2172 14.1847 20.0949 14.355 19.9406L23.0783 12.0378C23.2375 11.8986 23.3645 11.732 23.4518 11.5478C23.5392 11.3636 23.5852 11.1655 23.5871 10.9651C23.589 10.7647 23.5468 10.5659 23.463 10.3803C23.3792 10.1948 23.2555 10.0263 23.099 9.88453C22.9425 9.74279 22.7564 9.6307 22.5516 9.5548C22.3468 9.47889 22.1273 9.4407 21.906 9.44244C21.6847 9.44418 21.466 9.48582 21.2627 9.56494C21.0593 9.64406 20.8754 9.75906 20.7217 9.90324Z" fill="#DCA277"/>
</svg>
