<svg width="30" height="30" viewBox="0 0 30 30" fill="none" xmlns="http://www.w3.org/2000/svg">
<path d="M15 -0.000976562C6.72 -0.000976562 0 6.71902 0 14.999C0 23.279 6.72 29.999 15 29.999C23.28 29.999 30 23.279 30 14.999C30 6.71902 23.28 -0.000976562 15 -0.000976562ZM16.32 23.639V24.179C16.32 24.899 15.735 25.499 15 25.499C14.28 25.499 13.68 24.914 13.68 24.179V23.549C12.735 23.324 10.785 22.634 9.645 20.399C9.3 19.739 9.63 18.914 10.32 18.629L10.425 18.584C11.04 18.329 11.73 18.584 12.045 19.169C12.525 20.084 13.47 21.224 15.225 21.224C16.62 21.224 18.195 20.504 18.195 18.809C18.195 17.369 17.145 16.619 14.775 15.764C13.125 15.179 9.75 14.219 9.75 10.799C9.75 10.649 9.765 7.19902 13.68 6.35902V5.81902C13.68 5.08402 14.28 4.49902 15 4.49902C15.72 4.49902 16.32 5.08402 16.32 5.81902V6.37402C17.925 6.65902 18.945 7.51402 19.56 8.32402C20.07 8.98402 19.8 9.94402 19.02 10.274C18.48 10.499 17.85 10.319 17.49 9.85402C17.07 9.28402 16.32 8.69902 15.09 8.69902C14.04 8.69902 12.375 9.25402 12.375 10.784C12.375 12.209 13.665 12.749 16.335 13.634C19.935 14.879 20.85 16.709 20.85 18.809C20.85 22.754 17.1 23.504 16.32 23.639Z" fill="#DCA277"/>
</svg>
