<svg width="30" height="30" viewBox="0 0 30 30" fill="none" xmlns="http://www.w3.org/2000/svg">
<path d="M6 25.797L2.55 29.5054C2.075 30.016 1.531 30.1305 0.918002 29.8488C0.305002 29.5672 -0.000997557 29.0631 2.443e-06 28.3364V3.22377C2.443e-06 2.33696 0.294002 1.57807 0.882002 0.947098C1.47 0.316123 2.176 9.83515e-05 3 -0.000976562H27C27.825 -0.000976562 28.5315 0.315048 29.1195 0.947098C29.7075 1.57915 30.001 2.33804 30 3.22377V22.5722C30 23.459 29.7065 24.2184 29.1195 24.8505C28.5325 25.4825 27.826 25.798 27 25.797H6ZM15 20.9598C15.425 20.9598 15.7815 20.8051 16.0695 20.4955C16.3575 20.1859 16.501 19.8032 16.5 19.3475C16.5 18.8906 16.356 18.508 16.068 18.1995C15.78 17.891 15.424 17.7362 15 17.7351C14.575 17.7351 14.219 17.8899 13.932 18.1995C13.645 18.509 13.501 18.8917 13.5 19.3475C13.5 19.8043 13.644 20.1875 13.932 20.4971C14.22 20.8067 14.576 20.9609 15 20.9598ZM15 14.5104C15.425 14.5104 15.7815 14.3556 16.0695 14.046C16.3575 13.7364 16.501 13.3538 16.5 12.898V6.44851C16.5 5.99167 16.356 5.609 16.068 5.3005C15.78 4.992 15.424 4.83721 15 4.83614C14.575 4.83614 14.219 4.99092 13.932 5.3005C13.645 5.61007 13.501 5.99274 13.5 6.44851V12.898C13.5 13.3548 13.644 13.738 13.932 14.0476C14.22 14.3572 14.576 14.5114 15 14.5104Z" fill="#DCA277"/>
</svg>
