<svg width="300" height="188" viewBox="0 0 300 188" fill="none" xmlns="http://www.w3.org/2000/svg">
<path d="M248.977 14.2881H57.9922C53.3021 14.2881 49.5 18.0696 49.5 22.7344V161.81C49.5 166.475 53.3021 170.257 57.9922 170.257H248.977C253.667 170.257 257.469 166.475 257.469 161.81V22.7344C257.469 18.0696 253.667 14.2881 248.977 14.2881Z" fill="white"/>
<path d="M248.962 170.345H57.977C55.6505 170.342 53.4201 169.422 51.775 167.786C50.1299 166.149 49.2045 163.931 49.2018 161.617V22.5414C49.2044 20.2274 50.1298 18.0089 51.7749 16.3727C53.42 14.7365 55.6505 13.8161 57.977 13.8135H248.962C251.288 13.816 253.519 14.7364 255.164 16.3726C256.809 18.0089 257.734 20.2274 257.737 22.5414V161.617C257.734 163.931 256.809 166.15 255.164 167.786C253.519 169.422 251.288 170.342 248.962 170.345ZM57.977 14.3766C55.8006 14.379 53.7139 15.2399 52.175 16.7706C50.636 18.3013 49.7703 20.3767 49.7679 22.5414V161.617C49.7703 163.782 50.636 165.857 52.175 167.388C53.7139 168.919 55.8006 169.779 57.977 169.782H248.962C251.138 169.779 253.225 168.919 254.764 167.388C256.303 165.857 257.168 163.782 257.171 161.617V22.5414C257.168 20.3767 256.303 18.3013 254.764 16.7706C253.225 15.2399 251.138 14.379 248.962 14.3766H57.977Z" fill="#623E1B"/>
<path d="M86.6074 90.3256C86.4959 90.3257 86.3855 90.3039 86.2824 90.2614C86.1794 90.219 86.0858 90.1567 86.0071 90.0781L82.0441 86.1365C81.8894 85.9772 81.8038 85.7638 81.8057 85.5424C81.8076 85.3209 81.8969 85.1091 82.0544 84.9525C82.2118 84.7959 82.4248 84.707 82.6475 84.7051C82.8702 84.7032 83.0847 84.7883 83.2448 84.9422L87.2078 88.8838C87.3266 89.0019 87.4074 89.1524 87.4402 89.3162C87.4729 89.48 87.4561 89.6498 87.3919 89.8042C87.3276 89.9585 87.2188 90.0904 87.0792 90.1832C86.9395 90.276 86.7754 90.3256 86.6074 90.3256Z" fill="#FBC379"/>
<path d="M82.6442 90.3256C82.4763 90.3256 82.3121 90.276 82.1725 90.1832C82.0329 90.0904 81.9241 89.9585 81.8598 89.8042C81.7955 89.6498 81.7787 89.48 81.8115 89.3162C81.8442 89.1524 81.9251 89.0019 82.0438 88.8838L86.0068 84.9422C86.167 84.7883 86.3815 84.7032 86.6042 84.7051C86.8268 84.707 87.0398 84.7959 87.1973 84.9525C87.3547 85.1091 87.444 85.3209 87.446 85.5424C87.4479 85.7638 87.3623 85.9772 87.2076 86.1365L83.2446 90.0781C83.1659 90.1567 83.0723 90.219 82.9692 90.2615C82.8662 90.3039 82.7557 90.3257 82.6442 90.3256Z" fill="#FBC379"/>
<path d="M200.076 127.999L198.945 130.58L205.907 133.599L207.038 131.018L200.076 127.999Z" fill="#FBC379"/>
<path d="M202.274 58.8065L195.726 62.6333L197.16 65.0607L203.708 61.2339L202.274 58.8065Z" fill="#FBC379"/>
<path d="M93.1637 65.3602L92.2867 68.0371L99.5079 70.3773L100.385 67.7003L93.1637 65.3602Z" fill="#FBC379"/>
<path d="M101.617 110.258L95.3975 114.586L97.0195 116.892L103.239 112.564L101.617 110.258Z" fill="#FBC379"/>
<path d="M215.7 100.337L215.44 103.141L222.837 103.819L223.097 101.015L215.7 100.337Z" fill="#FBC379"/>
<path d="M223.233 80.1706C223.121 80.1707 223.011 80.1489 222.908 80.1065C222.805 80.064 222.711 80.0017 222.633 79.9231L218.67 75.9815C218.588 75.9035 218.524 75.8103 218.479 75.7073C218.435 75.6043 218.411 75.4934 218.41 75.3813C218.409 75.2691 218.431 75.1579 218.474 75.0541C218.516 74.9503 218.579 74.856 218.659 74.7767C218.739 74.6974 218.834 74.6347 218.938 74.5922C219.042 74.5497 219.154 74.5284 219.267 74.5293C219.38 74.5303 219.491 74.5536 219.595 74.5979C219.698 74.6421 219.792 74.7065 219.87 74.7872L223.833 78.7288C223.952 78.8469 224.033 78.9974 224.066 79.1612C224.098 79.325 224.082 79.4948 224.017 79.6491C223.953 79.8035 223.844 79.9354 223.705 80.0282C223.565 80.121 223.401 80.1705 223.233 80.1706Z" fill="#FBC379"/>
<path d="M219.27 80.1706C219.102 80.1705 218.938 80.121 218.798 80.0282C218.659 79.9354 218.55 79.8035 218.486 79.6491C218.422 79.4948 218.405 79.325 218.437 79.1612C218.47 78.9974 218.551 78.8469 218.67 78.7288L222.633 74.7872C222.711 74.7065 222.805 74.6421 222.908 74.5979C223.012 74.5536 223.123 74.5303 223.236 74.5293C223.349 74.5284 223.461 74.5497 223.565 74.5922C223.67 74.6347 223.764 74.6974 223.844 74.7767C223.924 74.856 223.987 74.9503 224.03 75.0541C224.072 75.1579 224.094 75.2691 224.093 75.3813C224.092 75.4934 224.068 75.6043 224.024 75.7073C223.979 75.8103 223.915 75.9035 223.834 75.9815L219.871 79.9231C219.792 80.0016 219.698 80.0639 219.595 80.1064C219.492 80.1489 219.382 80.1707 219.27 80.1706Z" fill="#FBC379"/>
<path opacity="0.4" d="M153.47 141.079C178.41 141.079 198.628 120.97 198.628 96.1645C198.628 71.3589 178.41 51.25 153.47 51.25C128.53 51.25 108.312 71.3589 108.312 96.1645C108.312 120.97 128.53 141.079 153.47 141.079Z" fill="#FBC379"/>
<path d="M153.831 127.385C171.273 127.385 185.413 113.322 185.413 95.9741C185.413 78.6262 171.273 64.563 153.831 64.563C136.39 64.563 122.25 78.6262 122.25 95.9741C122.25 113.322 136.39 127.385 153.831 127.385Z" fill="#FBC379"/>
<path d="M147.012 109.64C146.764 109.64 146.519 109.59 146.29 109.494C146.062 109.397 145.856 109.255 145.685 109.077L135.633 98.6719C135.462 98.4993 135.328 98.2947 135.237 98.07C135.147 97.8454 135.102 97.6051 135.105 97.363C135.109 97.121 135.161 96.8821 135.258 96.6601C135.355 96.4381 135.495 96.2375 135.67 96.0698C135.846 95.9021 136.053 95.7707 136.28 95.6831C136.507 95.5956 136.749 95.5537 136.992 95.5599C137.235 95.566 137.475 95.6201 137.697 95.719C137.919 95.8179 138.119 95.9597 138.286 96.136L147.106 105.266L170.167 84.691C170.346 84.5278 170.556 84.4016 170.785 84.3197C171.014 84.2378 171.256 84.2017 171.499 84.2137C171.742 84.2256 171.98 84.2853 172.199 84.3892C172.419 84.4932 172.616 84.6394 172.778 84.8194C172.94 84.9993 173.065 85.2095 173.145 85.4378C173.225 85.666 173.259 85.9078 173.245 86.1492C173.231 86.3906 173.169 86.6267 173.062 86.844C172.955 87.0613 172.806 87.2554 172.624 87.4152L148.24 109.171C147.903 109.473 147.466 109.64 147.012 109.64Z" fill="white"/>
<path d="M257.454 22.5406V31.0396H49.4857V22.5406C49.4857 20.3005 50.3804 18.1521 51.973 16.5681C53.5656 14.9841 55.7256 14.0942 57.9779 14.0942H248.962C251.214 14.0942 253.374 14.9841 254.966 16.5681C256.559 18.1521 257.454 20.3005 257.454 22.5406Z" fill="#623E1B"/>
<path d="M10.6138 171.082C8.90367 171.082 7.21896 170.671 5.703 169.884C4.18705 169.097 2.88473 167.957 1.90688 166.562C0.929032 165.166 0.304605 163.557 0.0867426 161.87C-0.13112 160.183 0.0640303 158.468 0.655586 156.872C1.25598 155.252 16.6562 115.712 19.3383 108.841L37.8713 119.568C36.364 123.432 30.9024 138.078 26.5148 149.876L33.8041 149.088L36.0984 168.391L11.7639 171.022C11.3819 171.063 10.998 171.083 10.6138 171.082Z" fill="#F68D88"/>
<path d="M23.3351 171.693L20.0981 187.718H82.9681L79.3468 171.389L23.3351 171.693Z" fill="#FBC379"/>
<path d="M71.2322 100.618C71.1671 100.61 69.3837 107.285 55.4651 106.246C45.8293 105.528 43.4798 99.0051 43.259 99.0051C44.2979 98.7855 45.985 98.5575 46.4464 98.3125C47.9637 97.5017 49.0688 96.5146 49.6253 94.3962C50.0604 92.7396 50.282 86.3624 50.282 83.1626L65.1093 86.4764C64.9027 90.0858 63.4562 98.4533 68.526 99.9342C69.3696 100.179 70.2782 100.404 71.2322 100.618Z" fill="#ECBDBB"/>
<path d="M64.597 93.5724C58.7519 94.0313 51.2431 91.5765 49.8167 83.82L48.5299 76.8214C47.1035 69.0648 50.0434 62.0318 57.3863 60.6962C64.7289 59.3605 71.3738 64.6499 72.7999 72.4065L73.3697 75.5051C73.916 78.4811 75.0254 92.7543 64.597 93.5724Z" fill="#ECBDBB"/>
<path d="M36.9284 100.079C31.6757 100.467 26.3197 101.032 22.4546 104.591C17.7998 108.878 16.9563 114.148 19.926 128.651C22.481 141.131 21.4676 146.584 23.1768 169.612C23.2272 170.291 23.335 171.694 23.335 171.694L79.5247 171.601C79.5247 171.601 84.7899 141.049 87.6967 126.957C89.9072 116.244 95.7136 103.239 71.2322 100.618C71.1676 100.611 51.5329 99.0013 36.9284 100.079Z" fill="#F68D88"/>
<path d="M23.335 171.834C23.2984 171.834 23.2632 171.82 23.2368 171.795C23.2104 171.77 23.1948 171.735 23.1935 171.699L21.4325 126.237C21.4311 126.199 21.4447 126.163 21.4702 126.136C21.4957 126.108 21.5311 126.092 21.5686 126.091C21.5874 126.089 21.6062 126.092 21.624 126.098C21.6418 126.104 21.6581 126.114 21.6719 126.126C21.6857 126.139 21.6967 126.154 21.7043 126.172C21.7118 126.189 21.7156 126.207 21.7155 126.226L23.4765 171.688C23.4779 171.726 23.4643 171.762 23.4388 171.789C23.4133 171.817 23.3779 171.833 23.3404 171.834L23.335 171.834Z" fill="#623E1B"/>
<path d="M113.497 116.311L117.445 107.504C117.532 107.31 117.658 107.137 117.816 106.995C117.974 106.852 118.159 106.744 118.362 106.677C118.564 106.61 118.778 106.586 118.99 106.606C119.202 106.626 119.408 106.689 119.594 106.793C119.931 106.994 120.182 107.313 120.297 107.687C120.411 108.062 120.382 108.465 120.215 108.82L119.368 110.708L124.771 105.984C125.362 105.449 126.433 105.168 126.993 105.867C127.226 106.122 127.366 106.449 127.389 106.793C127.412 107.137 127.317 107.479 127.119 107.762C127.126 107.766 127.132 107.771 127.137 107.777C127.14 107.782 127.143 107.787 127.146 107.792L128.058 106.966C128.227 106.813 128.428 106.7 128.647 106.634C128.865 106.568 129.096 106.552 129.322 106.586C129.548 106.62 129.763 106.704 129.952 106.832C130.142 106.959 130.3 107.127 130.415 107.323C130.591 107.635 130.654 107.998 130.593 108.351C130.533 108.703 130.352 109.025 130.081 109.261L129.693 109.612C129.698 109.628 129.7 109.645 129.7 109.661C130.017 109.484 130.388 109.426 130.745 109.496C131.102 109.565 131.423 109.759 131.649 110.043C131.888 110.36 131.998 110.755 131.956 111.15C131.915 111.544 131.726 111.908 131.427 112.17L130.464 113.042C130.486 113.04 130.509 113.042 130.53 113.05C130.552 113.057 130.571 113.07 130.586 113.087C130.603 113.107 130.614 113.132 130.617 113.158C130.944 113.079 131.288 113.109 131.596 113.243C131.905 113.377 132.16 113.607 132.324 113.9C132.489 114.211 132.544 114.568 132.48 114.914C132.416 115.26 132.236 115.574 131.97 115.805L123.836 123.171C122.698 124.201 121.277 124.87 119.754 125.092C118.231 125.314 116.677 125.078 115.289 124.415C114.093 123.844 113.168 122.831 112.711 121.592C112.254 120.353 112.3 118.986 112.841 117.78L113.497 116.311Z" fill="#ECBDBB"/>
<g opacity="0.2">
<path d="M121.794 112.463C121.82 112.49 121.854 112.507 121.891 112.508C121.928 112.51 121.965 112.498 121.993 112.473L127.125 107.974C127.139 107.962 127.15 107.947 127.158 107.931C127.167 107.914 127.171 107.896 127.173 107.878C127.174 107.859 127.171 107.841 127.165 107.823C127.159 107.806 127.15 107.79 127.137 107.776C127.125 107.762 127.11 107.75 127.093 107.742C127.077 107.734 127.059 107.729 127.04 107.728C127.021 107.727 127.003 107.73 126.985 107.736C126.968 107.742 126.951 107.751 126.938 107.763L121.806 112.262C121.792 112.274 121.78 112.289 121.772 112.305C121.764 112.322 121.759 112.34 121.758 112.359C121.757 112.377 121.759 112.396 121.765 112.413C121.772 112.431 121.781 112.447 121.793 112.461L121.794 112.463Z" fill="#623E1B"/>
</g>
<g opacity="0.2">
<path d="M123.727 114.769C123.752 114.797 123.787 114.813 123.824 114.815C123.861 114.816 123.897 114.804 123.925 114.779L129.653 109.759C129.667 109.746 129.678 109.732 129.686 109.715C129.694 109.698 129.699 109.68 129.7 109.662C129.702 109.643 129.699 109.625 129.693 109.607C129.687 109.59 129.678 109.574 129.665 109.56C129.64 109.533 129.605 109.517 129.568 109.514C129.531 109.512 129.494 109.524 129.465 109.548L123.738 114.568C123.724 114.58 123.712 114.595 123.704 114.612C123.696 114.628 123.691 114.646 123.69 114.665C123.689 114.683 123.691 114.702 123.697 114.719C123.704 114.737 123.713 114.753 123.725 114.767L123.727 114.769Z" fill="#623E1B"/>
</g>
<g opacity="0.2">
<path d="M125.806 117.279C125.831 117.306 125.866 117.322 125.903 117.324C125.94 117.326 125.976 117.313 126.004 117.289L130.573 113.284C130.601 113.26 130.618 113.225 130.62 113.187C130.623 113.15 130.61 113.113 130.585 113.085C130.56 113.057 130.525 113.04 130.488 113.038C130.45 113.036 130.413 113.048 130.385 113.073L125.816 117.078C125.802 117.09 125.791 117.105 125.783 117.121C125.775 117.138 125.77 117.156 125.769 117.175C125.768 117.193 125.77 117.212 125.776 117.229C125.782 117.247 125.792 117.263 125.804 117.277L125.806 117.279Z" fill="#623E1B"/>
</g>
<path d="M70.0161 86.4511C68.967 81.2076 68.4858 77.7094 68.5415 74.0186C70.0195 71.4403 69.6308 68.4812 69.2948 67.2024C70.7433 67.9885 71.3491 68.0752 72.7123 68.0752C72.7123 68.0752 70.2683 58.3194 61.9613 55.6943C60.4327 55.1031 56.5336 54.3561 51.3551 55.0625C46.9505 55.6633 36.093 58.9388 34.5407 71.0965V71.1035C34.4892 71.5067 33.4469 82.708 31.3686 88.0824C28.5744 95.3074 24.6521 97.5521 24.7515 105.888C24.8794 116.61 44.6984 118.038 56.6537 117.234C68.6089 116.431 75.2798 112.523 75.367 104.795C75.4632 96.1376 72.1153 96.9417 70.0161 86.4511Z" fill="#623E1B"/>
<path d="M70.0195 82.0558C67.788 82.4615 65.5424 80.4161 65.1345 78.197C64.7266 75.9778 66.3101 74.4243 68.5416 74.0186L70.0195 82.0558Z" fill="#ECBDBB"/>
<path d="M94.0203 169.484C91.7757 169.484 89.589 168.776 87.7739 167.463C85.9589 166.15 84.6088 164.298 83.9175 162.174L69.1694 116.808L89.37 110.312L97.1262 134.174L110.53 112.972L128.503 124.212L103.004 164.546C102.049 166.057 100.723 167.303 99.1522 168.167C97.581 169.03 95.8154 169.484 94.0203 169.484Z" fill="#F68D88"/>
<path d="M82.1191 156.959C82.1103 156.959 82.1016 156.958 82.093 156.956C82.0561 156.95 82.0235 156.928 82.0022 156.898C81.981 156.867 81.9729 156.829 81.9798 156.792L86.9933 129.724C87.0001 129.688 87.0213 129.655 87.0522 129.634C87.0831 129.613 87.1212 129.604 87.1582 129.611C87.1951 129.618 87.2278 129.639 87.2492 129.67C87.2705 129.701 87.2786 129.738 87.2718 129.775L82.2584 156.843C82.2523 156.876 82.2351 156.905 82.2097 156.926C82.1842 156.947 82.1522 156.959 82.1191 156.959Z" fill="#623E1B"/>
<path d="M98.9305 140.563C98.8991 140.563 98.8686 140.552 98.8437 140.533C98.8189 140.514 98.8011 140.488 98.7932 140.457L97.1231 134.059C97.1184 134.041 97.1173 134.022 97.1199 134.004C97.1225 133.986 97.1286 133.968 97.1381 133.952C97.1475 133.936 97.16 133.922 97.1748 133.911C97.1897 133.9 97.2066 133.892 97.2245 133.887C97.2425 133.883 97.2613 133.882 97.2797 133.884C97.2981 133.887 97.3158 133.893 97.3318 133.902C97.3478 133.912 97.3619 133.924 97.3731 133.939C97.3842 133.954 97.3924 133.97 97.3971 133.988L99.0672 140.387C99.0766 140.423 99.0711 140.461 99.0521 140.493C99.033 140.525 99.0019 140.549 98.9656 140.558C98.9541 140.561 98.9423 140.563 98.9305 140.563Z" fill="#623E1B"/>
<path d="M6.44408 188H289.414C289.489 188 289.561 187.97 289.614 187.918C289.667 187.865 289.697 187.793 289.697 187.719C289.697 187.644 289.667 187.572 289.614 187.519C289.561 187.467 289.489 187.437 289.414 187.437H6.44408C6.36901 187.437 6.29701 187.467 6.24392 187.519C6.19083 187.572 6.16101 187.644 6.16101 187.719C6.16101 187.793 6.19083 187.865 6.24392 187.918C6.29701 187.97 6.36901 188 6.44408 188Z" fill="#623E1B"/>
</svg>
