<svg width="300" height="188" viewBox="0 0 300 188" fill="none" xmlns="http://www.w3.org/2000/svg">
<g clip-path="url(#clip0_431_1317)">
<path d="M257.415 122.383L256.852 122.444L263.801 185.607L264.364 185.546L257.415 122.383Z" fill="#623E1B"/>
<path d="M275.414 149.957L271.995 183.597L272.559 183.653L275.977 150.014L275.414 149.957Z" fill="#623E1B"/>
<path d="M281.292 179.53H255.925V187.718H281.292V179.53Z" fill="#623E1B"/>
<path opacity="0.2" d="M281.292 179.53H255.925V187.718H281.292V179.53Z" fill="white"/>
<path d="M296.585 164.453C301.39 158.101 299.099 148.321 291.468 142.61C283.836 136.899 273.754 137.419 268.948 143.771C264.143 150.124 266.434 159.903 274.065 165.614C281.697 171.325 291.779 170.806 296.585 164.453Z" fill="#FBC379"/>
<path opacity="0.2" d="M296.585 164.453C301.39 158.101 299.099 148.321 291.468 142.61C283.836 136.899 273.754 137.419 268.948 143.771C264.143 150.124 266.434 159.903 274.065 165.614C281.697 171.325 291.779 170.806 296.585 164.453Z" fill="white"/>
<path opacity="0.5" d="M296.584 164.455C296.262 164.883 295.91 165.289 295.531 165.669C290.241 169.03 282.433 168.501 276.238 163.865C268.607 158.155 266.317 148.376 271.123 142.023C271.446 141.596 271.797 141.19 272.174 140.809C277.468 137.445 285.273 137.976 291.469 142.611C299.1 148.323 301.39 158.102 296.584 164.455Z" fill="white"/>
<path d="M261.184 140.353C268.744 134.549 270.799 124.594 265.773 118.119C260.748 111.644 250.545 111.1 242.985 116.904C235.425 122.709 233.37 132.663 238.396 139.139C243.421 145.614 253.624 146.158 261.184 140.353Z" fill="#FBC379"/>
<path opacity="0.2" d="M258.788 138.687C252.933 143.185 245.492 143.87 240.098 140.942C239.474 140.395 238.904 139.79 238.396 139.136C233.369 132.662 235.423 122.707 242.984 116.903C248.839 112.408 256.28 111.72 261.671 114.646C262.296 115.193 262.867 115.798 263.376 116.455C268.402 122.928 266.348 132.884 258.788 138.687Z" fill="white"/>
<path d="M29.7098 73.1593C44.9174 73.1593 57.2456 60.8976 57.2456 45.772C57.2456 30.6465 44.9174 18.3848 29.7098 18.3848C14.5022 18.3848 2.17395 30.6465 2.17395 45.772C2.17395 60.8976 14.5022 73.1593 29.7098 73.1593Z" fill="#E9F3FF"/>
<g opacity="0.05">
<path d="M29.7097 67.4832C41.7656 67.4832 51.5388 57.7627 51.5388 45.7719C51.5388 33.781 41.7656 24.0605 29.7097 24.0605C17.6538 24.0605 7.88062 33.781 7.88062 45.7719C7.88062 57.7627 17.6538 67.4832 29.7097 67.4832Z" fill="#623E1B"/>
</g>
<path d="M22.5647 53.5268L24.6011 50.3862C26.2146 51.6163 27.6269 52.2444 29.128 52.2444C30.9278 52.2444 31.7195 51.502 31.7195 50.0647C31.7195 46.8157 23.338 46.8742 23.338 41.1755C23.338 37.512 25.8894 35.1786 29.9127 35.1786C32.6287 35.1786 34.4741 36.2935 35.9571 37.8578L33.6218 40.5186C32.4677 39.4747 31.4891 38.9248 30.1632 38.9248C28.6346 38.9248 27.8072 39.5375 27.8072 40.9562C27.8072 43.9687 36.1884 43.7049 36.1884 49.7404C36.1884 53.3669 33.7758 55.9906 29.128 55.9906C27.1227 55.9898 24.358 55.1429 22.5647 53.5268ZM28.1494 32.083H31.2468V36.6311H28.1494V32.083ZM28.1494 54.0944H31.2468V59.0845H28.1494V54.0944Z" fill="white"/>
<path d="M272.465 54.7745C287.672 54.7745 300 42.5128 300 27.3873C300 12.2617 287.672 0 272.465 0C257.257 0 244.929 12.2617 244.929 27.3873C244.929 42.5128 257.257 54.7745 272.465 54.7745Z" fill="#E9F3FF"/>
<g opacity="0.05">
<path d="M272.465 49.0984C284.52 49.0984 294.294 39.3779 294.294 27.3871C294.294 15.3963 284.52 5.67578 272.465 5.67578C260.409 5.67578 250.635 15.3963 250.635 27.3871C250.635 39.3779 260.409 49.0984 272.465 49.0984Z" fill="#623E1B"/>
</g>
<path d="M265.319 35.1418L267.356 32.0015C268.969 33.2312 270.381 33.8597 271.883 33.8597C273.683 33.8597 274.474 33.1169 274.474 31.6797C274.474 28.4306 266.093 28.4892 266.093 22.7904C266.093 19.1273 268.644 16.7935 272.667 16.7935C275.383 16.7935 277.229 17.9082 278.712 19.4724L276.376 22.1333C275.222 21.0894 274.244 20.5398 272.918 20.5398C271.389 20.5398 270.562 21.1524 270.562 22.5711C270.562 25.5836 278.943 25.3196 278.943 31.3553C278.943 34.9816 276.53 37.6056 271.883 37.6056C269.877 37.605 267.112 36.7582 265.319 35.1418ZM270.904 13.6982H274.001V18.246H270.904V13.6982ZM270.904 35.7094H274.001V40.6998H270.904V35.7094Z" fill="white"/>
<path d="M248.962 14.0957H57.977C53.2869 14.0957 49.4849 17.8773 49.4849 22.542V161.618C49.4849 166.283 53.2869 170.064 57.977 170.064H248.962C253.652 170.064 257.454 166.283 257.454 161.618V22.542C257.454 17.8773 253.652 14.0957 248.962 14.0957Z" fill="white"/>
<path d="M248.962 170.345H57.977C55.6505 170.342 53.4201 169.422 51.775 167.786C50.1299 166.149 49.2045 163.931 49.2018 161.617V22.5414C49.2044 20.2274 50.1298 18.0089 51.7749 16.3727C53.42 14.7365 55.6505 13.8161 57.977 13.8135H248.962C251.288 13.816 253.519 14.7364 255.164 16.3726C256.809 18.0089 257.734 20.2274 257.737 22.5414V161.617C257.734 163.931 256.809 166.149 255.164 167.786C253.519 169.422 251.288 170.342 248.962 170.345ZM57.977 14.3766C55.8006 14.379 53.7139 15.2399 52.175 16.7706C50.636 18.3013 49.7703 20.3767 49.7679 22.5414V161.617C49.7703 163.782 50.636 165.857 52.175 167.388C53.7139 168.918 55.8006 169.779 57.977 169.782H248.962C251.138 169.779 253.225 168.918 254.764 167.388C256.303 165.857 257.168 163.782 257.171 161.617V22.5414C257.168 20.3767 256.303 18.3013 254.764 16.7706C253.225 15.2399 251.138 14.379 248.962 14.3766H57.977Z" fill="#623E1B"/>
<path d="M86.6071 90.3256C86.4955 90.3257 86.3851 90.3039 86.2821 90.2614C86.179 90.219 86.0854 90.1567 86.0067 90.0781L82.0437 86.1365C81.889 85.9772 81.8034 85.7638 81.8053 85.5424C81.8073 85.3209 81.8966 85.1091 82.054 84.9525C82.2115 84.7959 82.4245 84.707 82.6471 84.7051C82.8698 84.7032 83.0843 84.7883 83.2445 84.9422L87.2075 88.8838C87.3262 89.0019 87.4071 89.1524 87.4398 89.3162C87.4726 89.48 87.4557 89.6498 87.3915 89.8042C87.3272 89.9585 87.2184 90.0904 87.0788 90.1832C86.9392 90.276 86.775 90.3256 86.6071 90.3256Z" fill="#FBC379"/>
<path d="M82.6442 90.3256C82.4763 90.3256 82.3121 90.276 82.1725 90.1832C82.0329 90.0904 81.9241 89.9585 81.8598 89.8042C81.7955 89.6498 81.7787 89.48 81.8115 89.3162C81.8442 89.1524 81.9251 89.0019 82.0438 88.8838L86.0068 84.9422C86.167 84.7883 86.3815 84.7032 86.6042 84.7051C86.8268 84.707 87.0398 84.7959 87.1973 84.9525C87.3547 85.1091 87.444 85.3209 87.446 85.5424C87.4479 85.7638 87.3623 85.9772 87.2076 86.1365L83.2446 90.0781C83.1659 90.1567 83.0723 90.219 82.9692 90.2615C82.8662 90.3039 82.7557 90.3257 82.6442 90.3256Z" fill="#FBC379"/>
<path d="M200.076 127.999L198.945 130.58L205.907 133.599L207.038 131.018L200.076 127.999Z" fill="#FBC379"/>
<path d="M202.274 58.807L195.726 62.6338L197.16 65.0612L203.708 61.2344L202.274 58.807Z" fill="#FBC379"/>
<path d="M93.1637 65.3602L92.2867 68.0371L99.5079 70.3773L100.385 67.7003L93.1637 65.3602Z" fill="#FBC379"/>
<path d="M101.617 110.259L95.3975 114.587L97.0195 116.893L103.239 112.565L101.617 110.259Z" fill="#FBC379"/>
<path d="M215.7 100.337L215.44 103.141L222.837 103.819L223.097 101.015L215.7 100.337Z" fill="#FBC379"/>
<path d="M223.233 80.1706C223.121 80.1707 223.011 80.1489 222.908 80.1065C222.805 80.064 222.711 80.0017 222.633 79.9231L218.67 75.9815C218.588 75.9035 218.524 75.8103 218.479 75.7073C218.435 75.6043 218.411 75.4934 218.41 75.3813C218.409 75.2691 218.431 75.1579 218.474 75.0541C218.516 74.9503 218.579 74.856 218.659 74.7767C218.739 74.6974 218.834 74.6347 218.938 74.5922C219.042 74.5497 219.154 74.5284 219.267 74.5293C219.38 74.5303 219.491 74.5536 219.595 74.5979C219.698 74.6421 219.792 74.7065 219.87 74.7872L223.833 78.7288C223.952 78.8469 224.033 78.9974 224.066 79.1612C224.098 79.325 224.082 79.4948 224.017 79.6491C223.953 79.8035 223.844 79.9354 223.705 80.0282C223.565 80.121 223.401 80.1705 223.233 80.1706Z" fill="#FBC379"/>
<path d="M219.27 80.1706C219.102 80.1705 218.938 80.121 218.798 80.0282C218.658 79.9354 218.55 79.8035 218.485 79.6491C218.421 79.4948 218.404 79.325 218.437 79.1612C218.47 78.9974 218.551 78.8469 218.669 78.7288L222.632 74.7872C222.711 74.7065 222.804 74.6421 222.908 74.5979C223.012 74.5536 223.123 74.5303 223.236 74.5293C223.349 74.5284 223.46 74.5497 223.565 74.5922C223.669 74.6347 223.764 74.6974 223.844 74.7767C223.923 74.856 223.987 74.9503 224.029 75.0541C224.072 75.1579 224.093 75.2691 224.092 75.3813C224.091 75.4934 224.068 75.6043 224.024 75.7073C223.979 75.8103 223.914 75.9035 223.833 75.9815L219.87 79.9231C219.791 80.0016 219.698 80.0639 219.595 80.1064C219.492 80.1489 219.381 80.1707 219.27 80.1706Z" fill="#FBC379"/>
<path opacity="0.4" d="M153.47 141.079C178.41 141.079 198.628 120.97 198.628 96.1645C198.628 71.3589 178.41 51.25 153.47 51.25C128.53 51.25 108.312 71.3589 108.312 96.1645C108.312 120.97 128.53 141.079 153.47 141.079Z" fill="#FBC379"/>
<path d="M153.47 127.575C170.912 127.575 185.051 113.512 185.051 96.164C185.051 78.8162 170.912 64.7529 153.47 64.7529C136.028 64.7529 121.888 78.8162 121.888 96.164C121.888 113.512 136.028 127.575 153.47 127.575Z" fill="#FBC379"/>
<path d="M147.012 109.64C146.764 109.64 146.519 109.59 146.29 109.493C146.062 109.396 145.856 109.255 145.685 109.076L135.633 98.6714C135.462 98.4988 135.328 98.2942 135.237 98.0695C135.147 97.8449 135.102 97.6046 135.105 97.3626C135.109 97.1206 135.161 96.8816 135.258 96.6596C135.355 96.4377 135.495 96.237 135.67 96.0693C135.846 95.9016 136.053 95.7702 136.28 95.6826C136.507 95.5951 136.749 95.5532 136.992 95.5594C137.235 95.5656 137.475 95.6196 137.697 95.7185C137.919 95.8174 138.119 95.9592 138.286 96.1356L147.106 105.265L170.167 84.6905C170.346 84.5273 170.556 84.4011 170.785 84.3192C171.014 84.2373 171.256 84.2012 171.499 84.2132C171.742 84.2251 171.98 84.2848 172.199 84.3887C172.419 84.4927 172.616 84.6389 172.778 84.8189C172.94 84.9988 173.065 85.209 173.145 85.4373C173.225 85.6655 173.259 85.9073 173.245 86.1487C173.231 86.3901 173.169 86.6262 173.062 86.8435C172.955 87.0608 172.806 87.255 172.624 87.4147L148.24 109.171C147.903 109.473 147.466 109.64 147.012 109.64Z" fill="white"/>
<path d="M257.454 22.5401V31.0391H49.4857V22.5401C49.4857 20.3 50.3804 18.1516 51.973 16.5676C53.5656 14.9836 55.7256 14.0938 57.9779 14.0938H248.962C251.214 14.0938 253.374 14.9836 254.966 16.5676C256.559 18.1516 257.454 20.3 257.454 22.5401Z" fill="#623E1B"/>
<path d="M10.6138 171.082C8.90367 171.082 7.21896 170.671 5.703 169.884C4.18705 169.097 2.88473 167.957 1.90688 166.562C0.929032 165.166 0.304605 163.557 0.0867426 161.87C-0.13112 160.183 0.0640303 158.468 0.655586 156.872C1.25598 155.252 16.6562 115.712 19.3383 108.841L37.8713 119.568C36.364 123.432 30.9024 138.078 26.5148 149.876L33.8041 149.088L36.0984 168.391L11.7639 171.022C11.3819 171.063 10.998 171.083 10.6138 171.082Z" fill="#F68D88"/>
<path d="M23.3349 171.693L20.098 187.718H82.968L79.3466 171.389L23.3349 171.693Z" fill="#FBC379"/>
<path d="M71.2322 100.619C71.1671 100.61 69.3837 107.286 55.4651 106.247C45.8293 105.529 43.4798 99.0056 43.259 99.0056C44.2979 98.786 45.985 98.5579 46.4464 98.313C47.9637 97.5022 49.0688 96.5151 49.6253 94.3967C50.0604 92.7401 50.282 86.3628 50.282 83.1631L65.1093 86.4769C64.9027 90.0863 63.4562 98.4538 68.526 99.9347C69.3696 100.18 70.2782 100.405 71.2322 100.619Z" fill="#ECBDBB"/>
<path d="M64.5969 93.5729C58.7517 94.0318 51.243 91.577 49.8166 83.8205L48.5297 76.8219C47.1033 69.0653 50.0433 62.0323 57.3862 60.6967C64.7288 59.361 71.3736 64.6504 72.7997 72.407L73.3696 75.5056C73.9159 78.4816 75.0253 92.7547 64.5969 93.5729Z" fill="#ECBDBB"/>
<path d="M36.9284 100.079C31.6757 100.466 26.3197 101.032 22.4546 104.591C17.7998 108.877 16.9563 114.147 19.926 128.651C22.481 141.13 21.4676 146.584 23.1768 169.612C23.2272 170.29 23.335 171.693 23.335 171.693L79.5247 171.6C79.5247 171.6 84.7899 141.048 87.6967 126.956C89.9072 116.243 95.7136 103.238 71.2322 100.617C71.1676 100.61 51.5329 99.0008 36.9284 100.079Z" fill="#F68D88"/>
<path d="M23.335 171.835C23.2984 171.835 23.2632 171.821 23.2368 171.796C23.2104 171.77 23.1948 171.736 23.1935 171.7L21.4325 126.237C21.4311 126.2 21.4447 126.164 21.4702 126.136C21.4957 126.109 21.5311 126.093 21.5686 126.091C21.5874 126.09 21.6062 126.092 21.624 126.098C21.6418 126.104 21.6581 126.114 21.6719 126.127C21.6857 126.139 21.6967 126.155 21.7043 126.172C21.7118 126.189 21.7156 126.208 21.7155 126.226L23.4765 171.689C23.4779 171.726 23.4643 171.762 23.4388 171.79C23.4133 171.817 23.3779 171.833 23.3404 171.835L23.335 171.835Z" fill="#623E1B"/>
<path d="M113.497 116.311L117.445 107.504C117.532 107.31 117.658 107.137 117.816 106.995C117.974 106.852 118.159 106.744 118.362 106.677C118.564 106.61 118.778 106.586 118.99 106.606C119.202 106.626 119.408 106.689 119.594 106.793C119.931 106.994 120.182 107.313 120.297 107.687C120.411 108.062 120.382 108.465 120.215 108.82L119.368 110.708L124.771 105.984C125.362 105.449 126.433 105.168 126.993 105.867C127.226 106.122 127.366 106.449 127.389 106.793C127.412 107.137 127.317 107.479 127.119 107.762C127.126 107.766 127.132 107.771 127.137 107.777C127.14 107.782 127.143 107.787 127.146 107.792L128.058 106.966C128.227 106.813 128.428 106.7 128.647 106.634C128.865 106.568 129.096 106.552 129.322 106.586C129.548 106.62 129.763 106.704 129.952 106.832C130.142 106.959 130.3 107.127 130.415 107.323C130.591 107.635 130.654 107.998 130.593 108.351C130.533 108.703 130.352 109.025 130.081 109.261L129.693 109.612C129.698 109.628 129.7 109.645 129.7 109.661C130.017 109.484 130.388 109.426 130.745 109.496C131.102 109.565 131.423 109.759 131.649 110.043C131.888 110.36 131.998 110.755 131.956 111.15C131.915 111.544 131.726 111.908 131.427 112.17L130.464 113.042C130.486 113.04 130.509 113.042 130.53 113.05C130.552 113.057 130.571 113.07 130.586 113.087C130.603 113.107 130.614 113.132 130.617 113.158C130.944 113.079 131.288 113.109 131.596 113.243C131.905 113.377 132.16 113.607 132.324 113.9C132.489 114.211 132.544 114.568 132.48 114.914C132.416 115.26 132.236 115.574 131.97 115.805L123.836 123.171C122.698 124.201 121.277 124.87 119.754 125.092C118.231 125.314 116.677 125.078 115.289 124.415C114.093 123.844 113.168 122.831 112.711 121.592C112.254 120.353 112.3 118.986 112.841 117.78L113.497 116.311Z" fill="#ECBDBB"/>
<g opacity="0.2">
<path d="M121.794 112.464C121.82 112.491 121.854 112.507 121.891 112.509C121.928 112.511 121.965 112.498 121.993 112.474L127.125 107.975C127.139 107.963 127.15 107.948 127.158 107.931C127.167 107.915 127.171 107.897 127.173 107.878C127.174 107.86 127.171 107.841 127.165 107.824C127.159 107.806 127.15 107.79 127.137 107.776C127.125 107.762 127.11 107.751 127.093 107.743C127.077 107.735 127.059 107.73 127.04 107.729C127.021 107.728 127.003 107.73 126.985 107.736C126.968 107.742 126.951 107.752 126.938 107.764L121.806 112.262C121.792 112.275 121.78 112.289 121.772 112.306C121.764 112.323 121.759 112.341 121.758 112.359C121.757 112.378 121.759 112.396 121.765 112.414C121.772 112.431 121.781 112.447 121.793 112.461L121.794 112.464Z" fill="#623E1B"/>
</g>
<g opacity="0.2">
<path d="M123.727 114.769C123.752 114.796 123.787 114.812 123.824 114.814C123.861 114.816 123.897 114.803 123.925 114.779L129.653 109.758C129.667 109.746 129.678 109.731 129.686 109.715C129.694 109.698 129.699 109.68 129.7 109.661C129.702 109.643 129.699 109.624 129.693 109.607C129.687 109.589 129.678 109.573 129.665 109.559C129.64 109.533 129.605 109.516 129.568 109.514C129.531 109.512 129.494 109.523 129.465 109.547L123.738 114.568C123.724 114.58 123.712 114.595 123.704 114.611C123.696 114.628 123.691 114.646 123.69 114.664C123.689 114.683 123.691 114.701 123.697 114.719C123.704 114.736 123.713 114.752 123.725 114.766L123.727 114.769Z" fill="#623E1B"/>
</g>
<g opacity="0.2">
<path d="M125.806 117.278C125.831 117.305 125.866 117.322 125.903 117.324C125.94 117.326 125.976 117.313 126.004 117.288L130.573 113.284C130.601 113.259 130.618 113.224 130.62 113.187C130.623 113.15 130.61 113.113 130.585 113.085C130.56 113.057 130.525 113.04 130.488 113.037C130.45 113.035 130.413 113.048 130.385 113.072L125.816 117.077C125.802 117.09 125.791 117.104 125.783 117.121C125.775 117.138 125.77 117.156 125.769 117.174C125.768 117.193 125.77 117.211 125.776 117.229C125.782 117.246 125.792 117.262 125.804 117.276L125.806 117.278Z" fill="#623E1B"/>
</g>
<path d="M70.0161 86.4511C68.967 81.2076 68.4858 77.7094 68.5415 74.0186C70.0195 71.4403 69.6308 68.4812 69.2948 67.2024C70.7433 67.9885 71.349 68.0752 72.7123 68.0752C72.7123 68.0752 70.2683 58.3194 61.9613 55.6943C60.4327 55.1031 56.5336 54.3561 51.3551 55.0625C46.9505 55.6633 36.093 58.9388 34.5407 71.0965V71.1035C34.4892 71.5067 33.4469 82.708 31.3686 88.0824C28.5744 95.3074 24.6521 97.5521 24.7515 105.888C24.8794 116.61 44.6984 118.038 56.6537 117.234C68.6089 116.431 75.2798 112.523 75.367 104.795C75.4632 96.1376 72.1153 96.9417 70.0161 86.4511Z" fill="#623E1B"/>
<path d="M70.0195 82.0558C67.788 82.4615 65.5424 80.4161 65.1345 78.197C64.7266 75.9778 66.3101 74.4243 68.5416 74.0186L70.0195 82.0558Z" fill="#ECBDBB"/>
<path d="M94.0203 169.484C91.7757 169.484 89.589 168.776 87.7739 167.463C85.9589 166.15 84.6088 164.298 83.9175 162.174L69.1694 116.808L89.37 110.312L97.1262 134.174L110.53 112.972L128.503 124.212L103.004 164.546C102.049 166.057 100.723 167.303 99.1522 168.167C97.581 169.03 95.8154 169.484 94.0203 169.484Z" fill="#F68D88"/>
<path d="M82.1191 156.958C82.1103 156.958 82.1016 156.957 82.093 156.956C82.0561 156.949 82.0235 156.928 82.0022 156.897C81.981 156.866 81.9729 156.828 81.9798 156.792L86.9933 129.724C87.0001 129.687 87.0213 129.654 87.0522 129.633C87.0831 129.612 87.1212 129.604 87.1582 129.611C87.1951 129.617 87.2278 129.639 87.2492 129.669C87.2705 129.7 87.2786 129.738 87.2718 129.775L82.2584 156.843C82.2523 156.875 82.2351 156.905 82.2097 156.926C82.1842 156.947 82.1522 156.958 82.1191 156.958Z" fill="#623E1B"/>
<path d="M98.9305 140.563C98.8991 140.563 98.8686 140.552 98.8437 140.533C98.8189 140.514 98.8011 140.488 98.7932 140.457L97.1231 134.059C97.1184 134.041 97.1173 134.022 97.1199 134.004C97.1225 133.986 97.1286 133.968 97.1381 133.952C97.1475 133.936 97.16 133.922 97.1748 133.911C97.1897 133.9 97.2066 133.892 97.2245 133.887C97.2425 133.883 97.2613 133.882 97.2797 133.884C97.2981 133.887 97.3158 133.893 97.3318 133.902C97.3478 133.912 97.3619 133.924 97.3731 133.939C97.3842 133.954 97.3924 133.97 97.3971 133.988L99.0672 140.387C99.0766 140.423 99.0711 140.461 99.0521 140.493C99.033 140.525 99.0019 140.549 98.9656 140.558C98.9541 140.561 98.9423 140.563 98.9305 140.563Z" fill="#623E1B"/>
<path d="M6.44408 187.999H289.414C289.489 187.999 289.561 187.969 289.614 187.917C289.667 187.864 289.697 187.792 289.697 187.718C289.697 187.643 289.667 187.572 289.614 187.519C289.561 187.466 289.489 187.437 289.414 187.437H6.44408C6.36901 187.437 6.29701 187.466 6.24392 187.519C6.19083 187.572 6.16101 187.643 6.16101 187.718C6.16101 187.792 6.19083 187.864 6.24392 187.917C6.29701 187.969 6.36901 187.999 6.44408 187.999Z" fill="#623E1B"/>
<path d="M223.055 93.4824L277.219 93.4824C280.076 93.4824 282.393 91.1784 282.393 88.3363V53.0307C282.393 50.1886 280.076 47.8846 277.219 47.8846L223.055 47.8846C220.197 47.8846 217.881 50.1886 217.881 53.0307V88.3363C217.881 91.1784 220.197 93.4824 223.055 93.4824Z" fill="#623E1B"/>
<path d="M232.548 54.2373H225.785C224.616 54.2373 223.668 55.1799 223.668 56.3427V60.2604C223.668 61.4232 224.616 62.3658 225.785 62.3658H232.548C233.717 62.3658 234.665 61.4232 234.665 60.2604V56.3427C234.665 55.1799 233.717 54.2373 232.548 54.2373Z" fill="white"/>
<path d="M234.665 55.1387V57.0461H230.939L230.338 56.4495V54.2383H233.758C233.877 54.2382 233.995 54.2614 234.105 54.3066C234.215 54.3519 234.315 54.4182 234.399 54.5018C234.483 54.5854 234.55 54.6847 234.596 54.7939C234.641 54.9032 234.665 55.0203 234.665 55.1387Z" fill="#FBC379"/>
<path d="M234.665 59.5562V61.4637C234.665 61.7026 234.569 61.9318 234.4 62.1008C234.23 62.2697 233.999 62.3646 233.759 62.3646H230.338V60.0934L230.939 59.5557L234.665 59.5562Z" fill="#FBC379"/>
<path d="M227.935 54.2373V56.4497L227.394 57.0474H223.668V55.1399C223.668 55.0216 223.692 54.9045 223.737 54.7952C223.783 54.6859 223.849 54.5865 223.933 54.5029C224.018 54.4192 224.117 54.3529 224.227 54.3076C224.337 54.2623 224.455 54.239 224.574 54.239L227.935 54.2373Z" fill="#FBC379"/>
<path d="M227.935 60.0938V62.365H224.575C224.456 62.365 224.338 62.3417 224.228 62.2965C224.118 62.2512 224.018 62.1848 223.934 62.1012C223.85 62.0175 223.784 61.9182 223.738 61.8089C223.692 61.6996 223.669 61.5824 223.669 61.4641V59.5566H227.395L227.935 60.0938Z" fill="#FBC379"/>
<path d="M277.379 84.429C277.379 85.6972 276.873 86.9133 275.971 87.81C275.07 88.7067 273.847 89.2105 272.572 89.2105C271.297 89.2105 270.074 88.7067 269.172 87.81C268.271 86.9133 267.764 85.6972 267.764 84.429C267.765 83.7163 267.928 83.0129 268.24 82.3713C268.552 81.7297 269.006 81.1665 269.567 80.7236C270.27 80.1522 271.121 79.7912 272.022 79.6828C272.923 79.5745 273.836 79.7233 274.655 80.1117C275.474 80.5002 276.166 81.1124 276.648 81.8769C277.13 82.6413 277.384 83.5265 277.38 84.429H277.379Z" fill="white"/>
<path d="M267.764 88.1345C267.06 88.7061 266.206 89.0672 265.304 89.1758C264.401 89.2844 263.486 89.1361 262.664 88.7482C261.843 88.3602 261.149 87.7484 260.663 86.9839C260.177 86.2193 259.919 85.3334 259.919 84.4289C259.919 83.5245 260.177 82.6385 260.663 81.874C261.149 81.1095 261.843 80.4977 262.664 80.1097C263.486 79.7217 264.401 79.5734 265.304 79.6821C266.206 79.7907 267.06 80.1518 267.764 80.7234C266.683 81.6198 266.199 82.9346 266.199 84.4288C266.199 85.923 266.682 87.2977 267.764 88.1345Z" fill="#FBC379"/>
<path d="M234.139 68.9238H224.552C224.064 68.9238 223.668 69.3176 223.668 69.8034V69.8037C223.668 70.2894 224.064 70.6832 224.552 70.6832H234.139C234.627 70.6832 235.023 70.2894 235.023 69.8037V69.8034C235.023 69.3176 234.627 68.9238 234.139 68.9238Z" fill="white"/>
<path d="M248.258 68.9238H238.671C238.183 68.9238 237.787 69.3176 237.787 69.8034V69.8037C237.787 70.2894 238.183 70.6832 238.671 70.6832H248.258C248.746 70.6832 249.142 70.2894 249.142 69.8037V69.8034C249.142 69.3176 248.746 68.9238 248.258 68.9238Z" fill="white"/>
<path d="M262.376 68.9238H252.79C252.301 68.9238 251.905 69.3176 251.905 69.8034V69.8037C251.905 70.2894 252.301 70.6832 252.79 70.6832H262.376C262.864 70.6832 263.26 70.2894 263.26 69.8037V69.8034C263.26 69.3176 262.864 68.9238 262.376 68.9238Z" fill="white"/>
<path d="M276.495 68.9238H266.908C266.42 68.9238 266.024 69.3176 266.024 69.8034V69.8037C266.024 70.2894 266.42 70.6832 266.908 70.6832H276.495C276.983 70.6832 277.379 70.2894 277.379 69.8037V69.8034C277.379 69.3176 276.983 68.9238 276.495 68.9238Z" fill="white"/>
</g>
<defs>
<clipPath id="clip0_431_1317">
<rect width="300" height="188" fill="white"/>
</clipPath>
</defs>
</svg>
