<svg width="31" height="36" viewBox="0 0 31 36" fill="none" xmlns="http://www.w3.org/2000/svg">
<path d="M15.5465 34.8203C15.482 34.82 15.4187 34.8034 15.3627 34.7722L0.700115 26.5036C0.64421 26.4721 0.597785 26.4267 0.565507 26.3721C0.53323 26.3175 0.516237 26.2556 0.516235 26.1925V9.6561C0.516237 9.59305 0.53323 9.53111 0.565507 9.47651C0.597785 9.4219 0.64421 9.37656 0.700115 9.34504L15.3627 1.07645C15.4186 1.04492 15.482 1.02832 15.5465 1.02832C15.6111 1.02832 15.6745 1.04492 15.7304 1.07645L30.393 9.34504C30.4489 9.37656 30.4953 9.4219 30.5276 9.47651C30.5598 9.53111 30.5768 9.59305 30.5768 9.6561V26.1925C30.5768 26.2556 30.5598 26.3175 30.5276 26.3721C30.4953 26.4267 30.4489 26.4721 30.393 26.5036L15.7304 34.7722C15.6744 34.8034 15.6111 34.82 15.5465 34.8203Z" fill="#FFBA6C"/>
<path d="M15.5028 2.26983L28.8829 10.1347V25.8653L15.5028 33.7302L2.1199 25.8653V10.1347L15.5028 2.26983ZM15.5028 0C15.2547 1.11134e-05 15.011 0.0665084 14.7962 0.192809L0.706633 8.47355C0.491795 8.59983 0.313391 8.78147 0.189351 9.0002C0.0653116 9.21893 6.30206e-06 9.46705 0 9.71962V26.2804C6.30206e-06 26.5329 0.0653116 26.7811 0.189351 26.9998C0.313391 27.2185 0.491795 27.4002 0.706633 27.5264L14.7934 35.8072C15.0083 35.9332 15.252 35.9997 15.5 36C15.7481 35.9998 15.9917 35.9333 16.2066 35.8072L30.2934 27.5264C30.5082 27.4002 30.6866 27.2185 30.8106 26.9998C30.9347 26.7811 31 26.5329 31 26.2804V9.71962C31 9.46705 30.9347 9.21893 30.8106 9.0002C30.6866 8.78147 30.5082 8.59983 30.2934 8.47355L16.2066 0.192809C15.9918 0.0665084 15.7481 1.11134e-05 15.5 0H15.5028Z" fill="#BB6B00"/>
<path d="M12.5439 24.4377C12.3574 24.4368 12.1788 24.3606 12.0469 24.2258C11.915 24.091 11.8405 23.9084 11.8396 23.7177V12.2937C11.8407 12.1031 11.9153 11.9206 12.0471 11.7859C12.1789 11.6511 12.3574 11.5749 12.5439 11.5737C12.6678 11.5738 12.7894 11.6079 12.896 11.6724L22.5723 17.3833C22.6801 17.4456 22.7697 17.5363 22.8316 17.6459C22.8935 17.7556 22.9256 17.8802 22.9244 18.0068C22.9257 18.1335 22.8937 18.2581 22.8318 18.3678C22.7698 18.4775 22.6802 18.5682 22.5723 18.6303L12.8918 24.3391C12.7864 24.4029 12.6664 24.4369 12.5439 24.4377Z" fill="white"/>
<path d="M12.54 12.285L17.378 15.1213L22.2167 17.9576L17.378 20.7939L12.54 23.6302V12.285ZM12.54 10.8547C12.1664 10.8547 11.8081 11.0054 11.5439 11.2736C11.2798 11.5418 11.1313 11.9057 11.1313 12.285V23.6302C11.1313 24.0096 11.2798 24.3734 11.5439 24.6416C11.8081 24.9098 12.1664 25.0605 12.54 25.0605C12.7875 25.0604 13.0306 24.9935 13.2443 24.8667L18.0823 22.0304L22.921 19.1941C23.1351 19.0686 23.313 18.888 23.4366 18.6706C23.5602 18.4532 23.6253 18.2065 23.6253 17.9555C23.6253 17.7044 23.5602 17.4578 23.4366 17.2403C23.313 17.0229 23.1351 16.8424 22.921 16.7168L18.0823 13.8805L13.2443 11.0463C13.0306 10.9195 12.7875 10.8527 12.54 10.8525V10.8547Z" fill="#BB6B00"/>
</svg>
